<svg width="88.618347" height="20.989868" viewBox="0 0 88.6183 20.9899" fill="none" xmlns="http://www.w3.org/2000/svg" xmlns:xlink="http://www.w3.org/1999/xlink">
	<desc>
			Created with Pixso.
	</desc>
	<defs/>
	<path id="1" d="M85.7723 10.2375C87.1804 11.6616 88.1647 12.8297 88.6183 13.389L88.6183 20.9899L85.7723 20.9899L85.7723 10.2375ZM80.7264 5.80634C81.7556 6.5813 82.7084 7.37482 83.5724 8.14612L83.5724 20.9899L80.7264 20.9899L80.7264 5.80634ZM75.6794 2.61163C76.6679 3.11853 77.6187 3.67657 78.5255 4.26447L78.5255 20.9899L75.6794 20.9899L75.6794 2.61163ZM70.6329 0.646973C71.6046 0.902283 72.5548 1.22498 73.4789 1.60016L73.4789 20.9899L70.6329 20.9899L70.6329 0.646973ZM65.5906 0.00115967C65.6588 0.000366211 65.7269 0 65.795 0C66.6873 0 67.5688 0.0686035 68.4367 0.196167L68.4367 20.9899L65.5906 20.9899L65.5906 0.00115967ZM60.5474 0.706665C61.4981 0.462036 62.4466 0.275146 63.3935 0.155151L63.3935 20.9899L60.5474 20.9899L60.5474 0.706665ZM55.493 2.48846C56.4448 2.073 57.3932 1.69812 58.3391 1.37286L58.3391 20.9899L55.493 20.9899L55.493 2.48846ZM50.45 5.00146C51.4027 4.47815 52.3512 3.97888 53.2961 3.51251L53.2961 20.9899L50.45 20.9899L50.45 5.00146ZM45.408 7.92328C46.3616 7.3515 47.3101 6.78833 48.2541 6.24213L48.2541 20.9899L45.408 20.9899L45.408 7.92328ZM40.361 10.9553C41.3154 10.3895 42.2639 9.81818 43.2071 9.24908L43.2071 20.9899L40.361 20.9899L40.361 10.9553ZM35.3144 13.8219C36.2694 13.3106 37.218 12.781 38.1605 12.2404L38.1605 20.9899L35.3144 20.9899L35.3144 13.8219ZM30.2674 16.2865C31.2229 15.8712 32.1714 15.4264 33.1135 14.9588L33.1135 20.9899L30.2674 20.9899L30.2674 16.2865ZM25.2293 18.1457C26.1852 17.8608 27.1338 17.5366 28.0754 17.1796L28.0754 20.9899L25.2293 20.9899L25.2293 18.1457ZM20.1785 19.2428C21.1348 19.1165 22.0833 18.9427 23.0245 18.7274L23.0245 20.9899L20.1785 20.9899L20.1785 19.2428ZM15.1319 19.4405C15.6115 19.4684 16.097 19.483 16.5879 19.483C17.0531 19.483 17.5164 19.4706 17.978 19.4465L17.978 20.9899L15.1319 20.9899L15.1319 19.4405ZM10.0858 18.6624C10.9969 18.8881 11.9479 19.0786 12.9318 19.2189L12.9318 20.9899L10.0858 20.9899L10.0858 18.6624ZM5.04254 16.9526C5.91492 17.3286 6.86786 17.6968 7.88861 18.0307L7.88861 20.9899L5.04254 20.9899L5.04254 16.9526ZM0 14.2599C0.612915 14.6628 1.58508 15.2626 2.84607 15.9136L2.84607 20.9899L0 20.9899L0 14.2599Z" clip-rule="evenodd" fill="#101010" fill-opacity="1.000000" fill-rule="evenodd"/>
</svg>
