<svg width="19.000000" height="16.000000" viewBox="0 0 19 16" fill="none" xmlns="http://www.w3.org/2000/svg" xmlns:xlink="http://www.w3.org/1999/xlink">
	<path d="M8.35352 0.146484C8.54883 0.341675 8.54883 0.658325 8.35352 0.853516L1.70703 7.5L18.5 7.5C18.7761 7.5 19 7.72388 19 8C19 8.27612 18.7761 8.5 18.5 8.5L1.70703 8.5L8.35352 15.1465C8.54883 15.3417 8.54883 15.6583 8.35352 15.8535C8.1582 16.0488 7.8418 16.0488 7.64648 15.8535L0.146484 8.35352C0.0983887 8.30566 0.0622559 8.25037 0.0378418 8.19141C0.0134277 8.13245 0 8.06775 0 8C0 7.86365 0.0546875 7.73999 0.143066 7.64978L0.144287 7.64856C0.14502 7.64783 0.145752 7.64709 0.146484 7.64648L0.146729 7.64624L7.64648 0.146484C7.8418 -0.0488281 8.1582 -0.0488281 8.35352 0.146484Z" fill="#000000" fill-opacity="1.000000" fill-rule="evenodd"/>
</svg>
