<svg width="19.500000" height="16.000000" viewBox="0 0 19.5 16" fill="none" xmlns="http://www.w3.org/2000/svg" xmlns:xlink="http://www.w3.org/1999/xlink">
	<desc>
			Created with Pixso.
	</desc>
	<defs/>
	<path id="Vector" d="M11.1465 0.146484C11.3417 -0.0488281 11.6583 -0.0488281 11.8535 0.146484L19.3512 7.64417L19.3535 7.64648C19.3611 7.65405 19.3684 7.66187 19.3755 7.6698C19.3796 7.67456 19.3838 7.67944 19.3878 7.68445C19.4116 7.71362 19.4316 7.74487 19.4479 7.77747C19.4502 7.78223 19.4525 7.78699 19.4547 7.79187L19.4554 7.79346C19.4841 7.85645 19.5 7.92639 19.5 8C19.5 8.07434 19.4838 8.14478 19.4547 8.20813C19.4347 8.25183 19.4081 8.29333 19.3749 8.33093C19.3701 8.33618 19.3654 8.34143 19.3604 8.34656C19.3582 8.34888 19.3558 8.3512 19.3535 8.35352L19.3535 8.35364L11.8535 15.8535C11.6583 16.0488 11.3417 16.0488 11.1465 15.8535C10.9512 15.6583 10.9512 15.3417 11.1465 15.1465L17.7928 8.5L0.5 8.5C0.223877 8.5 0 8.27612 0 8C0 7.72388 0.223877 7.5 0.5 7.5L17.7928 7.5L11.1465 0.853516C10.9512 0.658325 10.9512 0.341675 11.1465 0.146484Z" fill="#000000" fill-opacity="1.000000" fill-rule="evenodd"/>
</svg>
