<svg width="11.000000" height="12.999268" viewBox="0 0 11 12.9993" fill="none" xmlns="http://www.w3.org/2000/svg" xmlns:xlink="http://www.w3.org/1999/xlink">
	<desc>
			Created with Pixso.
	</desc>
	<defs/>
	<path id="Vector (Stroke)" d="M5.5 12.9993C5.77612 12.9993 6 12.7755 6 12.4996L6 1.70642L10.1464 5.85278C10.3416 6.04797 10.6581 6.0481 10.8534 5.85303C11.0487 5.65796 11.0488 5.34167 10.8536 5.14648L5.85364 0.146484C5.75989 0.0527344 5.63269 0 5.5 0C5.36731 0 5.24011 0.0527344 5.14636 0.146484L0.146362 5.14648C-0.0488281 5.34167 -0.0487061 5.65796 0.146606 5.85303C0.341919 6.0481 0.658447 6.04797 0.853638 5.85278L5 1.70642L5 12.4996C5 12.7755 5.22388 12.9993 5.5 12.9993Z" fill="#101010" fill-opacity="1.000000" fill-rule="evenodd"/>
</svg>
