<svg width="24.000000" height="24.000000" viewBox="0 0 24 24" fill="none" xmlns="http://www.w3.org/2000/svg" xmlns:xlink="http://www.w3.org/1999/xlink">
	<desc>
			Created with Pixso.
	</desc>
	<defs/>
	<rect id="24x24_icon/attention" rx="12.000000" width="24.000000" height="24.000000" fill="#E8A035" fill-opacity="1.000000"/>
	<path id="!" d="M12.3599 13.9999L11.3999 13.9999L11.1599 6.79993L11.1599 5.99994L12.5999 5.99994L12.5999 6.79993L12.3599 13.9999ZM11.8799 17.28C11.6453 17.28 11.4373 17.1946 11.2559 17.0239C11.0852 16.8426 10.9999 16.6346 10.9999 16.4C10.9999 16.1546 11.0852 15.9466 11.2559 15.7759C11.4373 15.6053 11.6453 15.52 11.8799 15.52C12.1252 15.52 12.3333 15.6053 12.5039 15.7759C12.6746 15.9466 12.7599 16.1546 12.7599 16.4C12.7599 16.6346 12.6746 16.8426 12.5039 17.0239C12.3333 17.1946 12.1252 17.28 11.8799 17.28Z" fill="#FFFFFF" fill-opacity="1.000000" fill-rule="nonzero"/>
</svg>
