<svg width="19.000000" height="13.000000" viewBox="0 0 19 13" fill="none" xmlns="http://www.w3.org/2000/svg" xmlns:xlink="http://www.w3.org/1999/xlink">
	<desc>
			Created with Pixso.
	</desc>
	<defs/>
	<path id="Vector" d="M0 0.5C0 0.223877 0.223877 0 0.5 0L18.5 0C18.7761 0 19 0.223877 19 0.5C19 0.776123 18.7761 1 18.5 1L0.5 1C0.223877 1 0 0.776123 0 0.5ZM6 6.5C6 6.22388 6.22388 6 6.5 6L18.5 6C18.7761 6 19 6.22388 19 6.5C19 6.77612 18.7761 7 18.5 7L6.5 7C6.22388 7 6 6.77612 6 6.5ZM0.5 12C0.223877 12 0 12.2239 0 12.5C0 12.7761 0.223877 13 0.5 13L18.5 13C18.7761 13 19 12.7761 19 12.5C19 12.2239 18.7761 12 18.5 12L0.5 12Z" fill="#101010" fill-opacity="1.000000" fill-rule="evenodd"/>
</svg>
