<svg width="25.666016" height="25.055908" viewBox="0 0 25.666 25.0559" fill="none" xmlns="http://www.w3.org/2000/svg" xmlns:xlink="http://www.w3.org/1999/xlink">
	<path id="Stroke 1" d="M0.5 0.500488L3.27344 0.980469L4.55664 16.2778C4.66016 17.5271 5.70312 18.4858 6.95703 18.4819L21.502 18.4819C22.6992 18.4844 23.7129 17.6045 23.8828 16.4204L25.1484 7.67651C25.2891 6.69922 24.6113 5.79248 23.6348 5.65112C23.5488 5.63916 3.71875 5.63257 3.71875 5.63257" stroke="#101010" stroke-opacity="1.000000" stroke-width="1.000000" stroke-linejoin="round" stroke-linecap="round"/>
	<path id="Stroke 3" d="M15.666 10.5605L19.3633 10.5605" stroke="#101010" stroke-opacity="1.000000" stroke-width="1.000000" stroke-linejoin="round" stroke-linecap="round"/>
	<path id="Stroke 5" d="M6.37109 23.104C6.77344 23.104 7.09766 23.4294 7.09766 23.8293C7.09766 24.2307 6.77344 24.5559 6.37109 24.5559C5.9707 24.5559 5.64648 24.2307 5.64648 23.8293C5.64648 23.4294 5.9707 23.104 6.37109 23.104Z" fill="#101010" fill-opacity="1.000000" fill-rule="evenodd"/>
	<path id="Stroke 5" d="M7.09766 23.8293C7.09766 24.2307 6.77344 24.5559 6.37109 24.5559C5.9707 24.5559 5.64648 24.2307 5.64648 23.8293C5.64648 23.4294 5.9707 23.104 6.37109 23.104C6.77344 23.104 7.09766 23.4294 7.09766 23.8293Z" stroke="#101010" stroke-opacity="1.000000" stroke-width="1.000000" stroke-linejoin="round"/>
	<path id="Stroke 7" d="M21.4121 23.104C21.8145 23.104 22.1387 23.4294 22.1387 23.8293C22.1387 24.2307 21.8145 24.5559 21.4121 24.5559C21.0117 24.5559 20.6875 24.2307 20.6875 23.8293C20.6875 23.4294 21.0117 23.104 21.4121 23.104Z" fill="#101010" fill-opacity="1.000000" fill-rule="evenodd"/>
	<path id="Stroke 7" d="M22.1387 23.8293C22.1387 24.2307 21.8145 24.5559 21.4121 24.5559C21.0117 24.5559 20.6875 24.2307 20.6875 23.8293C20.6875 23.4294 21.0117 23.104 21.4121 23.104C21.8145 23.104 22.1387 23.4294 22.1387 23.8293Z" stroke="#101010" stroke-opacity="1.000000" stroke-width="1.000000" stroke-linejoin="round"/>
</svg>
