<svg width="19.000000" height="21.000000" viewBox="0 0 19 21" fill="none" xmlns="http://www.w3.org/2000/svg" xmlns:xlink="http://www.w3.org/1999/xlink">
	<desc>
			Created with Pixso.
	</desc>
	<defs/>
	<path id="Vector" d="M5.46545 0C5.7417 0 5.96545 0.223877 5.96545 0.5L5.96545 1.57922L13.0437 1.57922L13.0437 0.5C13.0437 0.223877 13.2676 0 13.5437 0C13.8198 0 14.0437 0.223877 14.0437 0.5L14.0437 1.58484C15.4742 1.63843 16.6931 2.07306 17.5723 2.91113C18.5126 3.80743 19 5.104 19 6.69958L19 6.72314L19 15.8475C19 17.4538 18.5099 18.7604 17.5645 19.663C16.6227 20.5623 15.2925 21 13.729 21L5.271 21C3.70959 21 2.37866 20.5538 1.43628 19.6404C0.491333 18.7245 0 17.4002 0 15.7719L0 6.72223C0 5.11517 0.49292 3.81073 1.4397 2.91064C2.32056 2.07343 3.5387 1.63861 4.96545 1.5849L4.96545 0.5C4.96545 0.223877 5.18933 0 5.46545 0ZM5.96545 2.57922L5.96545 3.79077C5.96545 4.06689 5.7417 4.29077 5.46545 4.29077C5.18933 4.29077 4.96545 4.06689 4.96545 3.79077L4.96545 2.58563C3.73584 2.63843 2.78381 3.01276 2.12866 3.63544C1.42419 4.30511 1 5.3222 1 6.72223L1 7.40424L18 7.40424L18 6.72223L18 6.7207L18 6.69934C18 5.30994 17.5804 4.30048 16.8823 3.63495C16.2296 3.01276 15.2778 2.63824 14.0437 2.58563L14.0437 3.79077C14.0437 4.06689 13.8198 4.29077 13.5437 4.29077C13.2676 4.29077 13.0437 4.06689 13.0437 3.79077L13.0437 2.57922L5.96545 2.57922ZM1 8.40424L1 15.7719C1 17.1979 1.42578 18.2376 2.1322 18.9223C2.84106 19.6094 3.89563 20 5.271 20L13.729 20C15.1116 20 16.1667 19.615 16.8739 18.9398C17.5775 18.268 18 17.2483 18 15.8475L18 8.40424L1 8.40424ZM4.55786 11.8097C4.55786 11.5336 4.78174 11.3097 5.05786 11.3097L5.06714 11.3097C5.34326 11.3097 5.56714 11.5336 5.56714 11.8097C5.56714 12.0858 5.34326 12.3097 5.06714 12.3097L5.05786 12.3097C4.78174 12.3097 4.55786 12.0858 4.55786 11.8097ZM9.00464 11.8097C9.00464 11.5336 9.22852 11.3097 9.50464 11.3097L9.51392 11.3097C9.79004 11.3097 10.0139 11.5336 10.0139 11.8097C10.0139 12.0858 9.79004 12.3097 9.51392 12.3097L9.50464 12.3097C9.22852 12.3097 9.00464 12.0858 9.00464 11.8097ZM13.442 11.8097C13.442 11.5336 13.6659 11.3097 13.942 11.3097L13.9513 11.3097C14.2275 11.3097 14.4513 11.5336 14.4513 11.8097C14.4513 12.0858 14.2275 12.3097 13.9513 12.3097L13.942 12.3097C13.6659 12.3097 13.442 12.0858 13.442 11.8097ZM4.55786 15.6962C4.55786 15.4201 4.78174 15.1962 5.05786 15.1962L5.06714 15.1962C5.34326 15.1962 5.56714 15.4201 5.56714 15.6962C5.56714 15.9724 5.34326 16.1962 5.06714 16.1962L5.05786 16.1962C4.78174 16.1962 4.55786 15.9724 4.55786 15.6962ZM9.00464 15.6962C9.00464 15.4201 9.22852 15.1962 9.50464 15.1962L9.51392 15.1962C9.79004 15.1962 10.0139 15.4201 10.0139 15.6962C10.0139 15.9724 9.79004 16.1962 9.51392 16.1962L9.50464 16.1962C9.22852 16.1962 9.00464 15.9724 9.00464 15.6962ZM13.442 15.6962C13.442 15.4201 13.6659 15.1962 13.942 15.1962L13.9513 15.1962C14.2275 15.1962 14.4513 15.4201 14.4513 15.6962C14.4513 15.9724 14.2275 16.1962 13.9513 16.1962L13.942 16.1962C13.6659 16.1962 13.442 15.9724 13.442 15.6962Z" fill="#101010" fill-opacity="1.000000" fill-rule="evenodd"/>
</svg>
