<svg width="18.910522" height="19.099915" viewBox="0 0 18.9105 19.0999" fill="none" xmlns="http://www.w3.org/2000/svg" xmlns:xlink="http://www.w3.org/1999/xlink">
	<desc>
			Created with Pixso.
	</desc>
	<defs/>
	<path id="Vector (Stroke)" d="M1.86792 2.52991C1.83545 2.56708 1.79907 2.60297 1.77539 2.62634C1.77356 2.62811 1.77185 2.62988 1.77014 2.63147C1.76697 2.6347 1.76367 2.63794 1.7605 2.64111C1.72644 2.67474 1.69153 2.70923 1.65283 2.74988C1.56958 2.83728 1.47327 2.94867 1.38025 3.09052C1.19751 3.36951 1.01538 3.78522 1.00098 4.39301C0.97168 5.62518 1.63306 7.74695 4.65149 11.1669C4.83423 11.374 4.81445 11.6899 4.60742 11.8727C4.40039 12.0554 4.08447 12.0357 3.90173 11.8287C0.825317 8.34302 -0.0369873 5.97974 0.0012207 4.36932C0.0205078 3.55579 0.269775 2.96082 0.543823 2.54254C0.679199 2.33575 0.817627 2.17682 0.928833 2.06012C0.978516 2.00793 1.02368 1.96332 1.05713 1.93024C1.06055 1.92682 1.06396 1.92352 1.06714 1.92041C1.10095 1.8869 1.11072 1.87646 1.11084 1.87659C1.11084 1.87665 1.11023 1.87744 1.10913 1.87885C1.11963 1.86566 1.13098 1.85303 1.14282 1.84094C1.87964 1.09369 2.49756 0.578796 3.05591 0.289062C3.63611 -0.0119629 4.1781 -0.0821533 4.71423 0.0985718C5.21216 0.266418 5.64307 0.632935 6.05798 1.04474C6.27002 1.25519 6.4928 1.4931 6.72754 1.74396L6.73035 1.74701C6.96692 1.99969 7.21899 2.26917 7.49866 2.55298L7.49951 2.55383C8.03418 3.09912 8.30652 3.62054 8.37708 4.15594C8.44568 4.6767 8.31201 5.1438 8.18152 5.53772C8.15833 5.6076 8.13501 5.67621 8.11206 5.74384C7.87097 6.453 7.66711 7.05267 8.05249 7.93042C8.16345 8.18329 8.04846 8.47827 7.79565 8.58923C7.54272 8.70026 7.2478 8.58527 7.13684 8.3324C6.58972 7.08636 6.91602 6.14172 7.16309 5.42596C7.18726 5.3562 7.21057 5.28857 7.2323 5.22308C7.35706 4.84656 7.42249 4.56616 7.38562 4.28662C7.35071 4.02185 7.21326 3.69037 6.78589 3.25439C6.49744 2.96149 6.23804 2.68439 6.00317 2.43347L5.99829 2.42828C5.76013 2.17371 5.55029 1.94977 5.35364 1.75458C4.95068 1.35474 4.65869 1.13513 4.39478 1.0462C4.16907 0.970093 3.91028 0.972412 3.51648 1.1767C3.10352 1.39099 2.57849 1.81055 1.86792 2.52991ZM16.8569 2.88336C17.0583 3.07227 17.0686 3.38867 16.8798 3.59009L10.4028 10.4988C11.0206 10.9622 11.5012 11.1242 11.8873 11.1602C12.3245 11.201 12.7053 11.0885 13.1384 10.9345C13.1798 10.9197 13.2224 10.9043 13.2661 10.8885C13.6478 10.75 14.1157 10.5803 14.6149 10.5942C15.2177 10.6109 15.8011 10.8816 16.4159 11.5062L16.4166 11.507C16.6906 11.7867 16.9507 12.0393 17.1948 12.2766L17.2081 12.2895C17.4541 12.5285 17.6874 12.7552 17.8934 12.9713C18.2974 13.3945 18.6534 13.8314 18.8158 14.3333C18.9895 14.8701 18.9225 15.413 18.6295 15.998C18.3469 16.5624 17.8442 17.1874 17.114 17.9327C17.1047 17.9421 17.0951 17.9512 17.0852 17.9598C17.113 17.9356 16.7681 18.3249 16.3763 18.5804C15.9297 18.8718 15.2925 19.1223 14.4205 19.0983C12.7408 19.0521 10.2816 17.9922 6.65247 14.4992L2.66504 18.7524C2.4762 18.9539 2.15979 18.9641 1.95837 18.7752C1.75684 18.5864 1.7467 18.27 1.93555 18.0685L16.1503 2.90619C16.3391 2.70471 16.6555 2.69452 16.8569 2.88336ZM7.33643 13.7697C10.9166 17.2178 13.1475 18.0629 14.448 18.0987C15.0991 18.1166 15.5385 17.933 15.8301 17.7429C16.0563 17.5953 16.1581 17.4846 16.2565 17.3778C16.3046 17.3256 16.3517 17.2744 16.4121 17.2202C17.1144 16.5022 17.525 15.9703 17.7354 15.5503C17.9365 15.1486 17.9412 14.8785 17.8644 14.6411C17.7762 14.3688 17.5599 14.0703 17.17 13.6617C16.9794 13.4619 16.7604 13.2487 16.5114 13.0067L16.4952 12.9911C16.2528 12.7555 15.9854 12.4957 15.7028 12.2073C15.2167 11.7134 14.865 11.6015 14.587 11.5938C14.2882 11.5854 14.0028 11.6875 13.5842 11.8372C13.5483 11.85 13.5115 11.8632 13.4735 11.8766C13.0237 12.0367 12.4648 12.2184 11.7946 12.1559C11.1603 12.0968 10.4816 11.8262 9.71533 11.2321L7.33643 13.7697Z" fill="#9B9B9B" fill-opacity="1.000000" fill-rule="evenodd"/>
</svg>
