<svg width="20.332153" height="15.000488" viewBox="0 0 20.3322 15.0005" fill="none" xmlns="http://www.w3.org/2000/svg" xmlns:xlink="http://www.w3.org/1999/xlink">
	<path id="Vector" d="M11.1947 14.4977C11.0544 14.5036 4.21533 14.4898 4.21533 14.4898C2.32007 14.6337 0.661255 13.2717 0.511719 11.4465C0.500488 11.3105 0.50354 3.97241 0.50354 3.97241C0.419556 2.13843 1.89612 0.585205 3.80176 0.504395C3.94409 0.497498 10.7738 0.510315 10.7738 0.510315C12.6783 0.368408 14.3423 1.74023 14.4897 3.57428C14.5 3.70636 14.4969 11.0386 14.4969 11.0386C14.5779 12.8706 13.0992 14.4199 11.1947 14.4977ZM14.5001 5.4801L17.7931 2.7851C18.6091 2.11707 19.8331 2.6991 19.8322 3.75208L19.8201 11.1011C19.8191 12.1541 18.5941 12.7311 17.7802 12.0631L14.5001 9.3681" stroke="#9B9B9B" stroke-opacity="1.000000" stroke-width="1.000000" stroke-linejoin="round" stroke-linecap="round"/>
</svg>
