<svg width="22.000000" height="24.000000" viewBox="0 0 22 24" fill="none" xmlns="http://www.w3.org/2000/svg" xmlns:xlink="http://www.w3.org/1999/xlink">
	<path id="Path (Stroke)" d="M7.23 2.1C10.48 -1.15 15.76 -1.15 19.02 2.1C22.27 5.36 22.27 10.64 19.02 13.89L11 21.91C8.53 24.38 4.52 24.38 2.04 21.91C-0.43 19.44 -0.43 15.42 2.04 12.95L8.64 6.35C10.08 4.92 12.4 4.92 13.83 6.35C15.26 7.78 15.26 10.1 13.83 11.53L8.17 17.19C7.78 17.58 7.15 17.58 6.76 17.19C6.37 16.8 6.37 16.17 6.76 15.78L12.42 10.12C13.07 9.47 13.07 8.41 12.42 7.76C11.77 7.11 10.71 7.11 10.06 7.76L3.46 14.36C1.76 16.06 1.76 18.8 3.46 20.5C5.15 22.19 7.89 22.19 9.59 20.5L17.6 12.48C20.08 10 20.08 5.99 17.6 3.52C15.13 1.04 11.12 1.04 8.64 3.52L1.57 10.59C1.18 10.98 0.55 10.98 0.15 10.59C-0.24 10.2 -0.24 9.57 0.15 9.18L7.23 2.1Z" fill="#101010" fill-opacity="1.000000" fill-rule="evenodd"/>
</svg>
