<svg width="19.500000" height="19.500000" viewBox="0 0 19.5 19.5" fill="none" xmlns="http://www.w3.org/2000/svg" xmlns:xlink="http://www.w3.org/1999/xlink">
	<desc>
			Created with Pixso.
	</desc>
	<defs/>
	<path id="Vector (Stroke)" d="M1.45886 1.60693C2.41418 0.58197 3.78064 0 5.41504 0L14.084 0C15.7225 0 17.0895 0.581787 18.0442 1.60712C18.9952 2.62848 19.5 4.04926 19.5 5.66602L19.5 13.834C19.5 15.4507 18.9952 16.8715 18.0441 17.8929C17.0891 18.9183 15.7219 19.5 14.083 19.5L5.41504 19.5C3.77649 19.5 2.40979 18.9182 1.45532 17.8928C0.504517 16.8715 0 15.4507 0 13.834L0 5.66602C0 4.04871 0.507202 2.62799 1.45886 1.60693ZM2.19043 2.28882C1.43982 3.09399 1 4.25635 1 5.66602L1 13.834C1 15.2443 1.43799 16.4066 2.18726 17.2114C2.93274 18.0123 4.02356 18.5 5.41504 18.5L14.083 18.5C15.475 18.5 16.5664 18.0123 17.3123 17.2114C18.0618 16.4065 18.5 15.2443 18.5 13.834L18.5 5.66602C18.5 4.25574 18.0618 3.09351 17.3124 2.28864C16.5665 1.48773 15.4755 1 14.084 1L5.41504 1C4.02832 1 2.93726 1.48749 2.19043 2.28882ZM6.99695 6.98901C7.19226 6.79376 7.50879 6.79382 7.7041 6.98907L9.74841 9.03381L11.791 6.99115C11.9862 6.7959 12.3029 6.7959 12.498 6.99115C12.6934 7.18646 12.6934 7.50299 12.498 7.6983L10.4554 9.74097L12.5001 11.7861C12.6953 11.9814 12.6953 12.298 12.5 12.4932C12.3047 12.6884 11.9882 12.6884 11.793 12.4931L9.74829 10.4481L7.70605 12.4903C7.51086 12.6855 7.19421 12.6855 6.99902 12.4903C6.80371 12.295 6.80371 11.9785 6.99902 11.7832L9.04126 9.74091L6.99695 7.69611C6.80164 7.50085 6.80176 7.18427 6.99695 6.98901Z" fill="#9B9B9B" fill-opacity="1.000000" fill-rule="evenodd"/>
</svg>
