<svg width="13.727905" height="13.727905" viewBox="0 0 13.7279 13.7279" fill="none" xmlns="http://www.w3.org/2000/svg" xmlns:xlink="http://www.w3.org/1999/xlink">
	<desc>
			Created with Pixso.
	</desc>
	<defs/>
	<path id="Vector (Stroke)" d="M0.146484 0.146423C0.341675 -0.0488281 0.658325 -0.0488281 0.853516 0.146423L6.86401 6.15686L12.8744 0.146423C13.0696 -0.0488281 13.3862 -0.0488281 13.5814 0.146423C13.7767 0.341736 13.7767 0.658264 13.5814 0.853577L7.57104 6.86395L13.5814 12.8744C13.7767 13.0696 13.7767 13.3862 13.5814 13.5815C13.3862 13.7767 13.0696 13.7767 12.8744 13.5815L6.86401 7.57104L0.853516 13.5815C0.658325 13.7767 0.341675 13.7767 0.146484 13.5815C-0.0488281 13.3862 -0.0488281 13.0696 0.146484 12.8744L6.15686 6.86395L0.146484 0.853577C-0.0488281 0.658264 -0.0488281 0.341736 0.146484 0.146423Z" fill="#101010" fill-opacity="1.000000" fill-rule="evenodd"/>
</svg>
