<svg width="23.610840" height="25.665527" viewBox="0 0 23.6108 25.6655" fill="none" xmlns="http://www.w3.org/2000/svg" xmlns:xlink="http://www.w3.org/1999/xlink">
	<path id="Stroke 1" d="M21.2666 9.45667C21.2666 9.45667 20.5425 18.4366 20.1226 22.2194C19.9224 24.026 18.8066 25.0847 16.9785 25.118C13.5 25.1807 10.0171 25.1847 6.54004 25.1113C4.78125 25.0753 3.68408 24.0034 3.48779 22.2286C3.06543 18.4127 2.34521 9.45667 2.34521 9.45667" stroke="#101010" stroke-opacity="1.000000" stroke-width="1.000000" stroke-linejoin="round" stroke-linecap="round"/>
	<path id="Stroke 3" d="M23.1108 5.15204L0.5 5.15204" stroke="#101010" stroke-opacity="1.000000" stroke-width="1.000000" stroke-linejoin="round" stroke-linecap="round"/>
	<path id="Stroke 5" d="M18.7544 5.15198C17.7075 5.15198 16.8062 4.41199 16.6011 3.38666L16.2769 1.76532C16.0771 1.01733 15.3994 0.5 14.6274 0.5L8.9834 0.5C8.21143 0.5 7.53418 1.01733 7.33447 1.76532L7.01025 3.38666C6.80518 4.41199 5.90381 5.15198 4.85693 5.15198" stroke="#101010" stroke-opacity="1.000000" stroke-width="1.000000" stroke-linejoin="round" stroke-linecap="round"/>
</svg>
