<svg width="19.000000" height="18.000000" viewBox="0 0 19 18" fill="none" xmlns="http://www.w3.org/2000/svg" xmlns:xlink="http://www.w3.org/1999/xlink">
	<desc>
			Created with Pixso.
	</desc>
	<defs/>
	<path id="Vector (Stroke)" d="M9.41321 0C9.68945 0 9.91321 0.223877 9.91321 0.5L9.91321 11.7094L11.9778 9.63641C12.1726 9.4408 12.4891 9.44012 12.6848 9.63501C12.8805 9.82983 12.8812 10.1464 12.6863 10.3421L9.77026 13.2701C9.67651 13.3643 9.54895 13.4172 9.41602 13.4172C9.39136 13.4172 9.36682 13.4154 9.34265 13.4119C9.21838 13.3943 9.10889 13.3311 9.03149 13.2397L6.14575 10.3421C5.95093 10.1464 5.95154 9.82983 6.14722 9.63501C6.3429 9.44012 6.65942 9.4408 6.85437 9.63641L8.91321 11.7039L8.91321 0.5C8.91321 0.223877 9.13708 0 9.41321 0ZM0 5L5.23682 5C5.51294 5 5.73682 5.22388 5.73682 5.5C5.73682 5.77612 5.51294 6 5.23682 6L1 6L1 17L18 17L18 6L13.7632 6C13.4871 6 13.2632 5.77612 13.2632 5.5C13.2632 5.22388 13.4871 5 13.7632 5L19 5L19 18L0 18L0 5Z" fill="#101010" fill-opacity="1.000000" fill-rule="evenodd"/>
</svg>
