<svg width="19.000000" height="13.000000" viewBox="0 0 19 13" fill="none" xmlns="http://www.w3.org/2000/svg" xmlns:xlink="http://www.w3.org/1999/xlink">
	<desc>
			Created with Pixso.
	</desc>
	<defs/>
	<path id="Vector" d="M0 0.5C0 0.223877 0.223877 0 0.5 0L18.5 0C18.7761 0 19 0.223877 19 0.5C19 0.776123 18.7761 1 18.5 1L0.5 1C0.223877 1 0 0.776123 0 0.5ZM3 6.5C3 6.22388 3.22388 6 3.5 6L15.5 6C15.7761 6 16 6.22388 16 6.5C16 6.77612 15.7761 7 15.5 7L3.5 7C3.22388 7 3 6.77612 3 6.5ZM6.5 12C6.22388 12 6 12.2239 6 12.5C6 12.7761 6.22388 13 6.5 13L12.5 13C12.7761 13 13 12.7761 13 12.5C13 12.2239 12.7761 12 12.5 12L6.5 12Z" fill="#101010" fill-opacity="1.000000" fill-rule="evenodd"/>
</svg>
