<svg width="2.346680" height="15.040039" viewBox="0 0 2.34668 15.04" fill="none" xmlns="http://www.w3.org/2000/svg" xmlns:xlink="http://www.w3.org/1999/xlink">
	<path d="M1.81348 10.6666L0.533203 10.6666L0.212891 1.06665L0.212891 0L2.13379 0L2.13379 1.06665L1.81348 10.6666ZM1.17285 15.04C0.860352 15.04 0.583008 14.9263 0.341797 14.6986C0.114258 14.4569 0 14.1796 0 13.8667C0 13.5396 0.114258 13.2622 0.341797 13.0347C0.583008 12.8071 0.860352 12.6934 1.17285 12.6934C1.5 12.6934 1.77734 12.8071 2.00488 13.0347C2.23242 13.2622 2.34668 13.5396 2.34668 13.8667C2.34668 14.1796 2.23242 14.4569 2.00488 14.6986C1.77734 14.9263 1.5 15.04 1.17285 15.04Z" fill="#FFFFFF" fill-opacity="1.000000" fill-rule="nonzero"/>
</svg>
