<svg width="16.556274" height="19.778198" viewBox="0 0 16.5563 19.7782" fill="none" xmlns="http://www.w3.org/2000/svg" xmlns:xlink="http://www.w3.org/1999/xlink">
	<desc>
			Created with Pixso.
	</desc>
	<defs/>
	<path id="Vector" d="M14.1317 2.42456C10.8989 -0.808228 5.65747 -0.808228 2.42456 2.42456C-0.808228 5.65747 -0.808228 10.8989 2.42468 14.1317L7.92456 19.6317C8.01843 19.7255 8.14551 19.7782 8.2782 19.7782C8.41077 19.7782 8.53796 19.7255 8.63171 19.6317L14.1317 14.1317C17.3645 10.8989 17.3645 5.65747 14.1317 2.42456ZM3.13171 3.13171C5.974 0.289429 10.5823 0.289429 13.4246 3.13171C16.267 5.974 16.267 10.5823 13.4246 13.4246L8.2782 18.571L3.13171 13.4247C0.289429 10.5823 0.289429 5.974 3.13171 3.13171ZM8.2782 5.7782C6.89746 5.7782 5.7782 6.89746 5.7782 8.2782C5.7782 9.65894 6.89746 10.7782 8.2782 10.7782C9.65894 10.7782 10.7782 9.65894 10.7782 8.2782C10.7782 6.89746 9.65894 5.7782 8.2782 5.7782ZM6.7782 8.2782C6.7782 7.44971 7.44971 6.7782 8.2782 6.7782C9.10657 6.7782 9.7782 7.44971 9.7782 8.2782C9.7782 9.10657 9.10657 9.7782 8.2782 9.7782C7.44971 9.7782 6.7782 9.10657 6.7782 8.2782Z" fill="#101010" fill-opacity="1.000000" fill-rule="evenodd"/>
</svg>
