<svg width="20.037109" height="19.500000" viewBox="0 0 20.0371 19.5" fill="none" xmlns="http://www.w3.org/2000/svg" xmlns:xlink="http://www.w3.org/1999/xlink">
	<path id="Vector (Stroke)" d="M0 4.185C0 1.87396 1.87378 0 4.18408 0L9.05908 0C11.3701 0 13.2439 1.87384 13.2439 4.185L13.2439 5.11798C13.2439 5.39417 13.0203 5.61798 12.7439 5.61798C12.4678 5.61798 12.2439 5.39417 12.2439 5.11798L12.2439 4.185C12.2439 2.42615 10.8179 1 9.05908 1L4.18408 1C2.42627 1 1 2.42603 1 4.185L1 15.315C1 17.074 2.42627 18.5 4.18408 18.5L9.06909 18.5C10.822 18.5 12.2439 17.0787 12.2439 15.326L12.2439 14.383C12.2439 14.1069 12.4678 13.883 12.7439 13.883C13.0203 13.883 13.2439 14.1069 13.2439 14.383L13.2439 15.326C13.2439 17.6313 11.374 19.5 9.06909 19.5L4.18408 19.5C1.87378 19.5 0 17.626 0 15.315L0 4.185ZM16.2549 6.48199C16.4497 6.28632 16.7664 6.28564 16.962 6.48047L19.8899 9.39569C19.9841 9.4895 20.0371 9.617 20.0371 9.75C20.0371 9.88293 19.9841 10.0104 19.8899 10.1043L16.962 13.0201C16.7664 13.215 16.4497 13.2143 16.2549 13.0186C16.0601 12.8229 16.0608 12.5063 16.2563 12.3115L18.3264 10.25L7.49609 10.25C7.21997 10.25 6.99609 10.0261 6.99609 9.75C6.99609 9.47388 7.21997 9.25 7.49609 9.25L18.3263 9.25L16.2563 7.18915C16.0608 6.99426 16.0601 6.67767 16.2549 6.48199Z" fill="#9B9B9B" fill-opacity="1.000000" fill-rule="evenodd"/>
</svg>
