<svg width="153.341797" height="113.000122" viewBox="0 0 153.342 113" fill="none" xmlns="http://www.w3.org/2000/svg" xmlns:xlink="http://www.w3.org/1999/xlink">
	<desc>
			Created with Pixso.
	</desc>
	<defs/>
	<path id="Vector" d="M76.8115 100.179C76.085 100.209 75.3584 100.149 74.6611 99.9993L74.6611 93.3638C75.1465 93.3337 75.6309 93.3037 76.1152 93.3037C77.9326 93.3037 79.6279 93.634 79.6279 96.3962C79.6279 98.9183 78.6592 100.179 76.8115 100.179ZM76.1455 90.6315C74.54 90.6014 72.9355 90.7516 71.3604 91.0519L71.3604 106.845L74.6611 106.845L74.6611 102.581C75.5098 102.702 76.3877 102.792 77.2656 102.792C80.9912 102.792 83.0811 99.8491 83.0811 96.3063C83.0811 91.8325 79.6582 90.6315 76.1455 90.6315ZM130.416 104.473C129.689 104.473 128.962 104.413 128.235 104.353L128.235 97.7174L129.72 97.7174C131.536 97.7174 133.232 97.8676 133.232 100.69C133.263 103.182 132.294 104.473 130.416 104.473ZM129.932 95.0151C129.295 95.0151 128.75 95.0151 128.266 95.0452L128.266 90.9918L124.965 90.9918L124.965 106.815C125.964 106.875 129.355 107.025 130.87 107.025C134.625 107.025 136.685 104.083 136.685 100.63C136.685 96.066 133.232 95.0151 129.932 95.0151ZM95.8311 99.5189C95.4668 99.549 94.9824 99.549 94.1953 99.549C92.7412 99.549 90.8037 99.0084 90.8037 96.2762C90.8037 94.3246 91.8936 93.3638 93.7109 93.3638C94.5889 93.3638 95.3457 93.4238 95.8613 93.4539L95.8613 99.5189L95.8311 99.5189ZM87.3506 96.2762C87.3506 98.7083 88.4414 100.24 89.9248 101.17C88.5625 102.912 86.957 104.413 84.7764 104.653L86.1699 107.175C88.3506 107.145 89.834 106.275 92.9531 102.191C93.4385 102.251 93.8926 102.281 94.377 102.281C95.043 102.281 95.4971 102.281 95.8311 102.251L95.8311 106.875L99.1318 106.875L99.1318 91.1119C97.3447 90.8116 95.5576 90.6315 93.7412 90.6315C89.7432 90.6315 87.3506 92.7333 87.3506 96.2762ZM48.6768 103.332C48.6768 109.127 42.1357 113 35.5029 113L34.5947 110.328C39.5615 110.238 45.0732 107.986 45.0732 103.392C45.0732 100.42 42.7715 99.609 40.3184 99.609C39.7129 99.609 39.1377 99.639 38.5322 99.729L38.5322 97.9576L43.498 93.604L39.9551 93.604C38.1377 93.604 36.2305 93.4238 35.624 92.8234L36.624 90.031C37.4111 90.8116 39.8945 90.9618 41.3184 90.9618L48.2832 90.9618L48.2832 92.7933L43.1953 97.297C46.4062 97.5072 48.6768 99.3087 48.6768 103.332ZM114.638 103.993L108.398 103.993C109.792 100.63 110.821 97.147 111.488 93.604L114.638 93.604L114.638 103.993ZM117.938 91.0219L108.61 91.0219C108.61 92.0728 108.489 93.1235 108.247 94.1744C107.551 97.4471 105.945 101.531 104.946 103.993L102.584 103.993L102.221 110.628L105.431 110.628L105.643 106.875L117.666 106.875L117.303 112.219L120.604 112.219L121.118 103.993L117.878 103.993L117.878 91.0219L117.938 91.0219ZM148.496 104.443C149.949 104.473 151.403 104.323 152.856 104.053L152.856 106.845C151.464 107.055 150.04 107.175 148.617 107.205C143.227 107.205 139.864 105.404 139.864 98.8883C139.864 96.036 140.743 92.403 143.348 91.0219L146.679 91.0219C149.525 91.0219 151.07 90.8417 152.13 90.3613L153.342 93.0034C152.069 93.634 150.525 93.7241 148.163 93.7241L144.861 93.7241C143.862 94.3846 143.438 96.3363 143.348 97.4772L146.437 97.4772C147.466 97.4772 150.282 97.4772 151.07 97.297L151.888 99.9692C150.889 100.089 149.041 100.119 147.284 100.119L143.348 100.119C143.59 103.062 145.104 104.443 148.496 104.443ZM56.6416 100.42C58.4287 94.7449 58.4893 94.5648 58.4893 94.5348C58.5801 94.2045 58.6406 93.8741 58.6709 93.5139L59.9131 93.5139L62.0029 100.42L56.6416 100.42ZM55.915 91.0219C56.0664 91.8926 55.7334 93.6641 55.4307 94.5348L51.2207 106.905L54.6738 106.905L55.8242 103.212L62.8809 103.212L63.9707 106.905L67.5449 106.905L62.4268 91.0519L55.915 91.0519L55.915 91.0219Z" fill="#FFFFFF" fill-opacity="1.000000" fill-rule="nonzero"/>
	<path id="Зал" d="M3.57617 99.7051Q2.74609 99.7051 2.09473 99.5044Q1.44336 99.3037 0.996094 98.9401Q0.711914 98.7085 0.504883 98.4211L0.504883 98.421Q0.386719 98.257 0.293945 98.0747Q0.0380859 97.5605 0 96.9335L1.58398 96.9335C1.61816 97.1592 1.68164 97.364 1.77539 97.548C1.87793 97.7319 2.00977 97.8907 2.17188 98.0245C2.3418 98.1499 2.54199 98.2461 2.77148 98.313Q3.11621 98.4133 3.57617 98.4133Q4.62402 98.4133 5.08398 98.0497Q5.27832 97.9003 5.39258 97.7043Q5.55664 97.4232 5.55664 97.0464C5.55664 96.8373 5.52246 96.6492 5.4541 96.4819C5.38574 96.3064 5.27148 96.1559 5.10938 96.0305C4.95605 95.9052 4.75195 95.809 4.49609 95.7421Q4.11328 95.6292 3.57617 95.6292L2.49121 95.6292L2.49121 94.4755L3.57617 94.4755Q4.44531 94.4755 4.84082 94.0992Q5.04688 93.9033 5.14551 93.6633Q5.2373 93.4423 5.2373 93.1837Q5.2373 92.9135 5.13477 92.6906Q5.03223 92.4685 4.82812 92.2932Q4.43262 91.9421 3.57617 91.9421Q3.12988 91.9421 2.79688 92.0299Q2.47754 92.1177 2.26074 92.2808C2.11621 92.3894 2.00586 92.5273 1.92871 92.6946Q1.81348 92.9329 1.77539 93.2339L0.191406 93.2339Q0.229492 92.6444 0.459961 92.1678Q0.611328 91.8452 0.84082 91.5935L0.84082 91.5935Q0.958984 91.4636 1.09863 91.3527Q1.51953 91.014 2.13281 90.8385Q2.75879 90.6504 3.57617 90.6504Q5.21191 90.6504 6.0166 91.3151Q6.33691 91.576 6.53223 91.9104Q6.83398 92.4277 6.83398 93.121C6.83398 93.5808 6.70117 93.9738 6.4375 94.2998C6.18262 94.6176 5.83691 94.8474 5.40332 94.9896Q6.0957 95.1516 6.54297 95.5741Q6.61523 95.6422 6.68066 95.717Q6.74316 95.7871 6.79785 95.8633Q7.15332 96.3589 7.15332 97.109C7.15332 97.4852 7.07617 97.8323 6.92285 98.1499C6.76953 98.4677 6.54395 98.7435 6.24609 98.9777C5.94824 99.2034 5.57324 99.3832 5.12207 99.517C4.67969 99.6423 4.16406 99.7051 3.57617 99.7051ZM8.55664 99.5671L11.916 90.7883L13.4873 90.7883L16.8594 99.5671L15.1738 99.5671L14.4072 97.548L10.8818 97.548L10.1152 99.5671L8.55664 99.5671ZM18.7021 99.6925C18.7871 99.7008 18.8633 99.7051 18.9316 99.7051C19.3486 99.7051 19.7148 99.6298 20.0303 99.4792C20.3457 99.3204 20.6094 99.0111 20.8223 98.5513C21.0352 98.083 21.1973 97.4309 21.3076 96.5948C21.418 95.7588 21.4736 94.6593 21.4736 93.2965L21.4736 92.0927L24.001 92.0927L24.001 99.5671L25.5723 99.5671L25.5723 90.7883L19.9531 90.7883L19.9531 93.0458Q19.9531 94.7639 19.8896 95.7922C19.8467 96.4778 19.7744 97.0045 19.6729 97.3724C19.5703 97.7319 19.4385 97.9702 19.2764 98.0873C19.1152 98.1959 18.915 98.2502 18.6768 98.2502L18.5615 98.2502C18.5273 98.2502 18.502 98.2461 18.4844 98.2378L18.4844 99.6675C18.5527 99.6842 18.625 99.6925 18.7021 99.6925ZM13.9219 96.2938L12.6445 92.7072L11.3672 96.2938L13.9219 96.2938Z" fill="#FFFFFF" fill-opacity="1.000000" fill-rule="evenodd"/>
	<path id="3" d="M149.035 27.1375C149.525 28.3032 149.841 29.2666 149.983 29.9485L149.983 78.7373L149.035 78.7373L149.035 27.1375ZM142.312 16.1675C142.639 16.5731 142.954 16.9781 143.26 17.3816L143.26 78.7373L142.312 78.7373L142.312 16.1675ZM135.582 9.28162C135.903 9.55054 136.22 9.82251 136.53 10.097L136.53 78.7373L135.582 78.7373L135.582 9.28162ZM128.853 4.65918C129.173 4.83521 129.488 5.01501 129.801 5.19824L129.801 78.7373L128.853 78.7373L128.853 4.65918ZM122.124 1.75391C122.443 1.85608 122.76 1.96216 123.072 2.07202L123.072 78.7373L122.124 78.7373L122.124 1.75391ZM115.39 0.272949C115.708 0.3125 116.024 0.355835 116.338 0.402954L116.338 78.7373L115.39 78.7373L115.39 0.272949ZM108.676 0.0472412C108.992 0.0266113 109.309 0.0108643 109.624 0L109.624 78.7373L108.676 78.7373L108.676 0.0472412ZM101.945 1.17188C102.262 1.08899 102.578 1.01001 102.894 0.935059L102.894 78.7373L101.945 78.7373L101.945 1.17188ZM95.2158 3.48669C95.5322 3.35413 95.8486 3.22461 96.1641 3.09839L96.1641 78.7373L95.2158 78.7373L95.2158 3.48669ZM88.4922 6.72131C88.8086 6.55164 89.125 6.38416 89.4404 6.21899L89.4404 78.7373L88.4922 78.7373L88.4922 6.72131ZM81.7578 10.6208C82.0742 10.4264 82.3906 10.2332 82.7061 10.0414L82.7061 78.7373L81.7578 78.7373L81.7578 10.6208ZM75.0283 14.915C75.3447 14.708 75.6611 14.5015 75.9766 14.2954L75.9766 78.7373L75.0283 78.7373L75.0283 14.915ZM68.3096 19.3381C68.626 19.1309 68.9424 18.9232 69.2578 18.7152L69.2578 78.7373L68.3096 78.7373L68.3096 19.3381ZM61.5703 23.6486C61.8867 23.4534 62.2031 23.257 62.5186 23.0593L62.5186 78.7373L61.5703 78.7373L61.5703 23.6486ZM54.8467 27.5586C55.1631 27.3881 55.4795 27.2153 55.7949 27.0405L55.7949 78.7373L54.8467 78.7373L54.8467 27.5586ZM48.1279 30.809C48.4443 30.6758 48.7607 30.5393 49.0762 30.4L49.0762 78.7373L48.1279 78.7373L48.1279 30.809ZM41.4033 33.1321C41.7197 33.0491 42.0361 32.9622 42.3516 32.8712L42.3516 78.7373L41.4033 78.7373L41.4033 33.1321ZM34.6748 34.2452C34.9912 34.2258 35.3076 34.2015 35.623 34.1724L35.623 78.7373L34.6748 78.7373L34.6748 34.2452Z" clip-rule="evenodd" fill="#FFFFFF" fill-opacity="1.000000" fill-rule="evenodd"/>
	<path id="2" d="M33.2598 54.5447L33.2598 78.7338L35.1572 78.7338L35.1572 52.3176C34.3926 53.1575 33.7578 53.9178 33.2598 54.5447ZM39.9785 47.7506L39.9785 78.7338L41.876 78.7338L41.876 46.2993C41.2129 46.7755 40.5801 47.2617 39.9785 47.7506ZM46.7129 43.3596L46.7129 78.7338L48.6104 78.7338L48.6104 42.4849C47.9609 42.7583 47.3281 43.051 46.7129 43.3596ZM53.4424 40.9224L53.4424 78.7338L55.3398 78.7338L55.3398 40.5616C54.6963 40.6603 54.0635 40.7812 53.4424 40.9224ZM60.1611 40.2642L60.1611 78.7338L62.0586 78.7338L62.0586 40.3682C61.4287 40.3152 60.7969 40.2802 60.1611 40.2642ZM66.9004 41.1287L66.9004 78.7338L68.7979 78.7338L68.7979 41.6107C68.167 41.4341 67.5342 41.2731 66.9004 41.1287ZM73.625 43.2595L73.625 78.7338L75.5225 78.7338L75.5225 44.0576C74.8906 43.7788 74.2578 43.5125 73.625 43.2595ZM80.3438 46.4037L80.3438 78.7338L82.2412 78.7338L82.2412 47.432C81.6074 47.0802 80.9756 46.7371 80.3438 46.4037ZM87.0723 50.2463L87.0723 78.7338L88.9697 78.7338L88.9697 51.4076C88.335 51.0153 87.7021 50.6278 87.0723 50.2463ZM93.8066 54.4409L93.8066 78.7338L95.7041 78.7338L95.7041 55.6405C95.0684 55.2388 94.4355 54.8386 93.8066 54.4409ZM100.525 58.6553L100.525 78.7338L102.423 78.7338L102.423 59.8136C101.786 59.4285 101.153 59.0421 100.525 58.6553ZM107.266 62.655L107.266 78.7338L109.163 78.7338L109.163 63.7126C108.525 63.3633 107.894 63.0105 107.266 62.655ZM113.979 66.228L113.979 78.7338L115.876 78.7338L115.876 67.1462C115.238 66.845 114.605 66.5387 113.979 66.228ZM120.708 69.2819L120.708 78.7338L122.605 78.7338L122.605 70.0376C121.968 69.7916 121.335 69.5397 120.708 69.2819ZM127.442 71.7454L127.442 78.7338L129.34 78.7338L129.34 72.3282C128.702 72.1406 128.069 71.9462 127.442 71.7454ZM134.166 73.5885L134.166 78.7338L136.063 78.7338L136.063 73.9968C135.426 73.8679 134.793 73.7317 134.166 73.5885ZM140.885 74.8159L140.885 78.7338L142.782 78.7338L142.782 75.0532C142.145 74.9814 141.513 74.9022 140.885 74.8159ZM147.614 75.446L147.614 78.7338L149.512 78.7338L149.512 75.5187C148.874 75.502 148.242 75.4775 147.614 75.446Z" clip-rule="evenodd" fill="#FFFFFF" fill-opacity="1.000000" fill-rule="evenodd"/>
	<path id="1" d="M149.187 64.4406C151.064 66.3345 152.377 67.8877 152.981 68.6302L152.981 78.7334L149.187 78.7334L149.187 64.4406ZM142.457 58.5482C143.829 59.5784 145.1 60.6333 146.252 61.6587L146.252 78.7333L142.457 78.7333L142.457 58.5482ZM135.728 54.301C137.046 54.975 138.313 55.7168 139.522 56.4983L139.522 78.7334L135.728 78.7334L135.728 54.301ZM128.999 51.6893C130.295 52.0287 131.562 52.4578 132.794 52.9565L132.794 78.7334L128.999 78.7334L128.999 51.6893ZM122.274 50.8304C122.365 50.8293 122.456 50.8289 122.547 50.8289C123.736 50.8289 124.912 50.92 126.069 51.0896L126.069 78.7334L122.274 78.7334L122.274 50.8304ZM115.551 51.7681C116.818 51.443 118.083 51.1945 119.346 51.035L119.346 78.7333L115.551 78.7333L115.551 51.7681ZM108.812 54.1365C110.081 53.5842 111.346 53.0859 112.606 52.6536L112.606 78.7334L108.812 78.7334L108.812 54.1365ZM102.086 57.4779C103.356 56.7822 104.621 56.1185 105.881 55.4985L105.881 78.7334L102.086 78.7334L102.086 57.4779ZM95.3623 61.3627C96.6338 60.6025 97.8984 59.8539 99.1572 59.1277L99.1572 78.7333L95.3623 78.7333L95.3623 61.3627ZM88.6328 65.3932C89.9053 64.6411 91.1699 63.8816 92.4277 63.1251L92.4277 78.7334L88.6328 78.7334L88.6328 65.3932ZM81.9043 69.2039C83.1777 68.524 84.4424 67.8201 85.6992 67.1013L85.6992 78.7334L81.9043 78.7334L81.9043 69.2039ZM75.1748 72.4802C76.4492 71.9281 77.7139 71.3368 78.9697 70.7152L78.9697 78.7333L75.1748 78.7333L75.1748 72.4802ZM68.4561 74.9521C69.7305 74.5734 70.9951 74.1426 72.251 73.668L72.251 78.7333L68.4561 78.7333L68.4561 74.9521ZM61.7217 76.4105C62.9971 76.2427 64.2617 76.0117 65.5166 75.7255L65.5166 78.7333L61.7217 78.7333L61.7217 76.4105ZM54.9922 76.6733C55.6318 76.7103 56.2793 76.7299 56.9346 76.7299C57.5547 76.7299 58.1719 76.7134 58.7871 76.6813L58.7871 78.7334L54.9922 78.7334L54.9922 76.6733ZM48.2637 75.6388C49.4785 75.939 50.7471 76.192 52.0586 76.3787L52.0586 78.7334L48.2637 78.7334L48.2637 75.6388ZM41.5391 73.3658C42.7021 73.8656 43.9727 74.3551 45.334 74.7991L45.334 78.7333L41.5391 78.7333L41.5391 73.3658ZM34.8154 69.7859C35.6328 70.3215 36.9287 71.1188 38.6104 71.9844L38.6104 78.7333L34.8154 78.7333L34.8154 69.7859Z" clip-rule="evenodd" fill="#FFFFFF" fill-opacity="1.000000" fill-rule="evenodd"/>
</svg>
