<svg width="17.000000" height="17.000000" viewBox="0 0 17 17" fill="none" xmlns="http://www.w3.org/2000/svg" xmlns:xlink="http://www.w3.org/1999/xlink">
	<desc>
			Created with Pixso.
	</desc>
	<defs/>
	<path id="Icon (Stroke)" d="M1.01636 8L3.5 8C3.77612 8 4 8.22388 4 8.5C4 8.77612 3.77612 9 3.5 9L1.01636 9C1.26282 12.7438 4.25623 15.7372 8 15.9836L8 13.5C8 13.2239 8.22388 13 8.5 13C8.77612 13 9 13.2239 9 13.5L9 15.9836C12.7438 15.7372 15.7372 12.7438 15.9836 9L13.5 9C13.2239 9 13 8.77612 13 8.5C13 8.22388 13.2239 8 13.5 8L15.9836 8C15.7372 4.25623 12.7438 1.26282 9 1.01642L9 3.5C9 3.77612 8.77612 4 8.5 4C8.22388 4 8 3.77612 8 3.5L8 1.01642C4.25623 1.26282 1.26282 4.25623 1.01636 8ZM0 8.5C0 3.8056 3.80554 0 8.5 0C13.1945 0 17 3.8056 17 8.5C17 13.1944 13.1945 17 8.5 17C3.80554 17 0 13.1944 0 8.5Z" fill="#101010" fill-opacity="1.000000" fill-rule="evenodd"/>
</svg>
