<svg width="32.000000" height="32.000000" viewBox="0 0 32 32" fill="none" xmlns="http://www.w3.org/2000/svg" xmlns:xlink="http://www.w3.org/1999/xlink">
	<defs>
		<clipPath id="clip2662_2619">
			<rect id="marker-pin-06" width="32.000000" height="32.000000" fill="white" fill-opacity="0"/>
		</clipPath>
	</defs>
	<rect id="marker-pin-06" width="32.000000" height="32.000000" fill="#FFFFFF" fill-opacity="0"/>
	<g clip-path="url(#clip2662_2619)">
		<path id="Icon" d="M19.73 16.13C23.02 16.76 25.33 18.21 25.33 19.89C25.33 22.16 21.15 24 16 24C10.84 24 6.66 22.16 6.66 19.89C6.66 18.21 8.97 16.76 12.26 16.13M16 19.43L16 12.14M16 12.14C14.45 12.14 13.2 10.91 13.2 9.4C13.2 7.89 14.45 6.66 16 6.66C17.54 6.66 18.79 7.89 18.79 9.4C18.79 10.91 17.54 12.14 16 12.14Z" stroke="#101010" stroke-opacity="1.000000" stroke-width="1.333333" stroke-linejoin="round"/>
	</g>
</svg>
