<svg width="19.000000" height="19.000000" viewBox="0 0 19 19" fill="none" xmlns="http://www.w3.org/2000/svg" xmlns:xlink="http://www.w3.org/1999/xlink">
	<desc>
			Created with Pixso.
	</desc>
	<defs/>
	<path id="Vector (Stroke)" d="M9.5 0C9.77612 0 10 0.223877 10 0.5L10 9L18.5 9C18.7761 9 19 9.22388 19 9.5C19 9.77612 18.7761 10 18.5 10L10 10L10 18.5C10 18.7761 9.77612 19 9.5 19C9.22388 19 9 18.7761 9 18.5L9 10L0.5 10C0.223877 10 0 9.77612 0 9.5C0 9.22388 0.223877 9 0.5 9L9 9L9 0.5C9 0.223877 9.22388 0 9.5 0Z" fill="#101010" fill-opacity="1.000000" fill-rule="evenodd"/>
</svg>
