<svg width="241.000000" height="79.000000" viewBox="0 0 241 79" fill="none" xmlns="http://www.w3.org/2000/svg" xmlns:xlink="http://www.w3.org/1999/xlink">
	<path id="Vector" d="M0.97 -0.48L35.73 -0.48C35.57 2.82 35.49 6.36 35.49 10.15C35.49 13.95 35.57 17.49 35.73 20.79L27.63 20.79L27.63 5.44L9.07 5.44L9.07 20.79L0.97 20.79Q1.25 15.1 1.25 10.15Q1.25 5.2 0.97 -0.48ZM65.61 -0.48C65.52 -0.27 65.41 -0.03 65.27 0.24C65.13 0.5 65 0.79 64.85 1.13C63.59 3.79 62.42 6.17 61.35 8.29C60.28 10.42 59.02 12.82 57.55 15.52C56.26 17.86 54.38 19.74 51.91 21.16C49.44 22.58 46.33 23.26 42.59 23.2C42.11 21.5 41.72 20.21 41.44 19.34C41.15 18.47 40.76 17.58 40.28 16.66C41.63 16.92 42.89 17.04 44.04 17.04C45.16 17.04 46.17 16.92 47.07 16.66C45.43 13.05 42.48 7.33 38.23 -0.48L46.81 -0.48L52.28 10.48L53.25 8.51C55.63 3.69 56.98 0.69 57.28 -0.48L65.61 -0.48ZM122.85 -0.48L130.95 -0.48C130.79 2.82 130.71 6.36 130.7 10.15C130.7 13.94 130.78 17.49 130.94 20.79L67.44 20.79C67.62 17 67.71 13.45 67.71 10.15C67.71 6.85 67.62 3.31 67.44 -0.48L75.54 -0.48L75.54 14.87L95.44 14.87L95.44 -0.48L102.92 -0.48L102.92 14.87L122.85 14.87L122.85 -0.48ZM159.43 13.74C160.16 14.88 160.86 16.29 161.55 17.95C162.13 19.29 162.59 20.24 162.93 20.79L152.8 20.79C152.66 20.45 152.48 19.88 152.25 19.06C152.02 18.16 151.77 17.41 151.51 16.8C151.24 16.2 150.87 15.67 150.39 15.22C149.61 14.52 148.64 14.06 147.48 13.86C146.31 13.65 144.73 13.55 142.7 13.55L142.7 20.79L134.12 20.79C134.31 17 134.4 13.45 134.4 10.15C134.4 6.85 134.31 3.31 134.12 -0.48L142.7 -0.48L142.7 7.17C142.93 7.19 143.28 7.2 143.74 7.2C147.32 4.18 149.99 1.63 151.73 -0.48L162.89 -0.48L152.18 8.6C153.69 9.11 155.07 9.78 156.31 10.62C157.67 11.56 158.71 12.6 159.43 13.74ZM232.9 -0.48L241 -0.48C240.83 2.82 240.75 6.36 240.75 10.15C240.75 13.94 240.83 17.49 241 20.79L232.9 20.79L232.9 12.82L206.53 12.82L206.53 20.79L198.43 20.79Q198.7 15.1 198.7 10.15Q198.7 5.2 198.43 -0.48L206.53 -0.48L206.53 7.48L232.9 7.48L232.9 -0.48ZM175.21 -0.45L174.62 15.98L182.99 -0.45L195.67 -0.45C195.51 2.85 195.43 6.39 195.43 10.16C195.43 13.95 195.51 17.49 195.67 20.79L186.82 20.79L187.44 4.79L179.1 20.79L166.77 20.79C166.95 17 167.04 13.46 167.04 10.16C167.04 6.88 166.95 3.34 166.77 -0.45L175.21 -0.45ZM3.68 46.54C1.22 44.67 0 41.99 0 38.51C0 35.02 1.22 32.25 3.68 30.22C6.14 28.19 9.96 27.17 15.15 27.17C22.41 27.17 27.27 29.29 29.73 33.53C27.66 34.14 25.23 35.05 22.45 36.26C21.79 35.17 20.74 34.36 19.3 33.83C17.87 33.3 16.4 33.04 14.91 33.04C12.7 33.04 11.06 33.53 9.98 34.52C8.9 35.51 8.36 36.72 8.36 38.17C8.36 39.73 8.94 41 10.1 41.99C11.26 42.98 13.04 43.47 15.43 43.47C17.33 43.47 18.85 43.2 19.98 42.67C21.1 42.13 21.93 41.27 22.45 40.1C24.34 40.96 26.75 41.93 29.69 43C28.54 45.36 26.62 47.01 23.94 47.95C21.25 48.89 18.32 49.36 15.15 49.36C9.96 49.36 6.14 48.42 3.68 46.54ZM85.79 49.06C85.35 47.95 84.76 46.55 84.03 44.87L73.04 44.87L71.31 49.06L62.67 49.06L72.31 27.79L84.99 27.79L94.71 49.06L85.79 49.06ZM126.76 27.79L134.89 27.79C134.73 31.09 134.65 34.64 134.64 38.43C134.64 42.22 134.72 45.77 134.88 49.07L126.76 49.07L126.76 42.27L111.01 42.27C108.82 45.2 107.23 47.46 106.22 49.07L96.85 49.07L102.43 42.48C102.55 42.3 102.74 42.06 103.02 41.74C100.65 41.21 98.98 40.36 98 39.19C97.02 38.02 96.54 36.58 96.54 34.88C96.54 32.71 97.46 30.99 99.3 29.72C101.13 28.45 104.37 27.82 109.01 27.82L126.76 27.82L126.76 27.79ZM57.79 42.02C58.52 43.16 59.22 44.56 59.91 46.22C60.49 47.57 60.95 48.52 61.29 49.06L51.16 49.06C51.02 48.73 50.84 48.15 50.61 47.33C50.38 46.43 50.13 45.68 49.87 45.08C49.6 44.47 49.23 43.94 48.75 43.49C47.97 42.79 47 42.34 45.84 42.13C44.68 41.93 43.09 41.82 41.07 41.82L41.07 49.06L32.49 49.06C32.67 45.27 32.76 41.73 32.76 38.43C32.76 35.13 32.67 31.58 32.49 27.79L41.07 27.79L41.07 35.44C41.29 35.46 41.64 35.47 42.1 35.47C45.68 32.46 48.35 29.9 50.09 27.79L61.25 27.79L50.54 36.87C52.05 37.38 53.43 38.06 54.67 38.9C56.03 39.83 57.07 40.87 57.79 42.02ZM82.06 40.3C81.19 38.25 80.29 36.19 79.38 34.15L78.55 32.24C77.74 34.02 76.56 36.7 75 40.3L82.06 40.3ZM106.99 36.62C107.99 36.73 109.47 36.78 111.42 36.78L126.76 36.78L126.76 33.44L111.42 33.44C109.45 33.44 107.95 33.49 106.94 33.59C105.93 33.69 105.24 33.85 104.87 34.09C104.5 34.32 104.32 34.66 104.32 35.09C104.32 35.54 104.52 35.87 104.91 36.11C105.3 36.34 106 36.52 106.99 36.62ZM26.28 71.16C27.01 72.3 27.71 73.71 28.4 75.36C28.98 76.71 29.44 77.66 29.78 78.21L19.65 78.21C19.51 77.87 19.33 77.3 19.1 76.48C18.87 75.58 18.62 74.83 18.36 74.22C18.09 73.62 17.72 73.09 17.24 72.64C16.46 71.93 15.49 71.48 14.33 71.27C13.16 71.07 11.58 70.97 9.55 70.97L9.55 78.21L0.97 78.21Q1.25 72.52 1.25 67.57Q1.25 62.62 0.97 56.94L9.55 56.94L9.55 64.58C9.78 64.6 10.13 64.61 10.59 64.61C14.17 61.61 16.84 59.05 18.58 56.94L29.74 56.94L19.03 66.02C20.54 66.53 21.92 67.2 23.16 68.04C24.52 68.98 25.56 70.02 26.28 71.16ZM54.28 78.21C53.84 77.09 53.25 75.69 52.52 74.02L41.53 74.02L39.8 78.21L31.16 78.21L40.8 56.94L53.48 56.94L63.2 78.21L54.28 78.21L54.28 78.21ZM101.65 56.96C106.22 56.96 109.41 57.65 111.2 59.03C112.99 60.41 113.89 62.34 113.89 64.85C113.89 66.57 113.53 68.02 112.82 69.23C112.11 70.43 110.85 71.36 109.06 72.04C107.27 72.71 104.8 73.05 101.65 73.05L73.5 73.05L73.5 78.21L65.03 78.21C65.21 74.42 65.3 70.87 65.3 67.57C65.3 64.27 65.21 60.72 65.03 56.94L73.5 56.94L97.85 56.96L101.65 56.96ZM146.38 63.09C142.77 62.99 139.27 62.93 135.87 62.91L135.87 78.21L127.26 78.21L127.26 62.91C123.83 62.93 120.35 62.99 116.78 63.09L116.78 56.94L146.38 56.94L146.38 63.09ZM168.87 78.21C168.43 77.09 167.85 75.69 167.11 74.02L156.12 74.02L154.4 78.21L145.75 78.21L155.4 56.94L168.08 56.94L177.8 78.21L168.87 78.21L168.87 78.21ZM50.55 69.45C49.68 67.4 48.78 65.34 47.87 63.3L47.04 61.39C46.23 63.17 45.05 65.85 43.49 69.45L50.55 69.45ZM165.15 69.45C164.28 67.4 163.38 65.34 162.46 63.3L161.63 61.39C160.83 63.17 159.65 65.85 158.08 69.45L165.15 69.45ZM103.53 67.21C104.48 67.08 105.15 66.85 105.53 66.52C105.91 66.18 106.1 65.69 106.1 65.05C106.1 64.4 105.92 63.93 105.56 63.6C105.21 63.28 104.55 63.06 103.6 62.94C102.64 62.83 101.19 62.77 99.24 62.77L73.5 62.77L73.5 67.4L99.24 67.4C101.15 67.4 102.58 67.34 103.53 67.21Z" fill="#101010" fill-opacity="1.000000" fill-rule="evenodd"/>
</svg>
