<svg width="52.000000" height="38.000000" viewBox="0 0 52 38" fill="none" xmlns="http://www.w3.org/2000/svg" xmlns:xlink="http://www.w3.org/1999/xlink">
	<path id="“" d="M15.45 0C7.02 0 0 6.55 0 24.89C0 33.54 4.77 38 11.24 38C16.86 38 21.08 34.06 21.08 28.82L21.08 27.51C21.08 22.53 17.42 18.34 11.24 18.34C7.02 18.34 4.77 20.7 4.77 20.7C4.77 7.86 9.83 4.19 15.45 4.19L15.45 0ZM46.37 0C37.94 0 30.91 6.55 30.91 24.89C30.91 33.54 35.69 38 42.16 38C47.78 38 52 34.06 52 28.82L52 27.51C52 22.53 48.34 18.34 42.16 18.34C37.94 18.34 35.69 20.7 35.69 20.7C35.69 7.86 40.75 4.19 46.37 4.19L46.37 0Z" fill="#101010" fill-opacity="1.000000" fill-rule="nonzero"/>
</svg>
