<svg width="19.000000" height="19.000000" viewBox="0 0 19 19" fill="none" xmlns="http://www.w3.org/2000/svg" xmlns:xlink="http://www.w3.org/1999/xlink">
	<desc>
			Created with Pixso.
	</desc>
	<defs/>
	<path id="Vector" d="M18.8535 0.146423C18.9015 0.194397 18.9376 0.249634 18.962 0.308594C18.9862 0.366882 18.9988 0.428711 18.9999 0.490784L19 0.5L19 6.5C19 6.77612 18.7761 7 18.5 7C18.2239 7 18 6.77612 18 6.5L18 1.70709L11.8535 7.85358C11.6583 8.04883 11.3417 8.04883 11.1465 7.85358C10.9512 7.65826 10.9512 7.34174 11.1465 7.14642L17.2928 1L12.5 1C12.2239 1 12 0.776123 12 0.5C12 0.223877 12.2239 0 12.5 0L18.5 0C18.5652 0 18.6302 0.0126343 18.6914 0.0379639C18.7504 0.0623169 18.8057 0.0985107 18.8535 0.146423ZM7.85352 11.8536C8.04883 11.6583 8.04883 11.3417 7.85352 11.1464C7.65833 10.9512 7.34167 10.9512 7.14648 11.1464L1 17.2929L1 12.5C1 12.2239 0.776123 12 0.5 12C0.223877 12 0 12.2239 0 12.5L0 18.5C0 18.5651 0.0126953 18.6302 0.0379639 18.6914C0.0623779 18.7504 0.0985107 18.8056 0.146484 18.8536C0.194336 18.9015 0.249634 18.9377 0.308594 18.962C0.360596 18.9836 0.416992 18.9966 0.476074 18.9995C0.484009 18.9998 0.491943 19 0.5 19L6.5 19C6.77612 19 7 18.7761 7 18.5C7 18.2239 6.77612 18 6.5 18L1.70715 18L7.85352 11.8536Z" fill="#101010" fill-opacity="1.000000" fill-rule="evenodd"/>
</svg>
