<svg width="14.500000" height="18.500000" viewBox="0 0 14.5 18.5" fill="none" xmlns="http://www.w3.org/2000/svg" xmlns:xlink="http://www.w3.org/1999/xlink">
	<desc>
			Created with Pixso.
	</desc>
	<defs/>
	<path id="Vector" d="M2.5 1L12 1C12.8284 1 13.5 1.67157 13.5 2.5L13.5 11.5L14.5 11.5L14.5 2.5C14.5 1.11926 13.3807 0 12 0L2.5 0L2.5 1ZM2 2.5C0.895386 2.5 0 3.39545 0 4.5L0 16.5C0 17.6046 0.895386 18.5 2 18.5L10 18.5C11.1046 18.5 12 17.6046 12 16.5L12 4.5C12 3.39545 11.1046 2.5 10 2.5L2 2.5Z" fill="#101010" fill-opacity="1.000000" fill-rule="evenodd"/>
</svg>
