<svg width="10.000000" height="8.666626" viewBox="0 0 10 8.66663" fill="none" xmlns="http://www.w3.org/2000/svg" xmlns:xlink="http://www.w3.org/1999/xlink">
	<path id="Vector" d="M0.6875 3.73096C3.37183 2.50793 5.16174 1.70166 6.05737 1.31201C8.61462 0.199707 9.146 0.00646973 9.49231 0.00012207C9.56848 -0.0012207 9.73877 0.0184326 9.84912 0.112061C9.94226 0.191162 9.9679 0.297974 9.9801 0.372925C9.99243 0.447754 10.0077 0.61853 9.99561 0.751953C9.85693 2.27466 9.25732 5.96973 8.95227 7.67517C8.82324 8.39673 8.56909 8.63867 8.323 8.66235C7.78833 8.71387 7.3822 8.29285 6.86438 7.93774C6.05396 7.3822 5.59607 7.03638 4.80945 6.49426C3.90027 5.86768 4.48962 5.52332 5.00769 4.96057C5.14331 4.81335 7.49939 2.57227 7.54492 2.3689C7.55066 2.34351 7.55591 2.24878 7.50208 2.19873C7.44824 2.14868 7.36877 2.16577 7.3114 2.17932C7.23022 2.19861 5.93555 3.09351 3.42749 4.86401C3.05994 5.12793 2.72705 5.25659 2.42883 5.24976C2.1001 5.24243 1.46765 5.05542 0.997437 4.89563C0.420776 4.69958 -0.0374756 4.59595 0.00244141 4.26294C0.0231934 4.0896 0.251587 3.91223 0.6875 3.73096Z" fill="#101010" fill-opacity="1.000000" fill-rule="nonzero"/>
</svg>
