<svg width="15.000000" height="13.000000" viewBox="0 0 15 13" fill="none" xmlns="http://www.w3.org/2000/svg" xmlns:xlink="http://www.w3.org/1999/xlink">
	<desc>
			Created with Pixso.
	</desc>
	<defs/>
	<path id="Vector" d="M1.03113 5.5965C5.05774 3.7619 7.74268 2.55243 9.08606 1.96808C12.9219 0.299622 13.719 0.00976562 14.2384 0.00012207C14.3527 -0.00189209 14.6082 0.02771 14.7737 0.168152C14.9133 0.286682 14.9518 0.446899 14.9702 0.559326C14.9886 0.671692 15.0116 0.927795 14.9933 1.12793C14.7855 3.41193 13.8861 8.95459 13.4285 11.5127C13.2349 12.5951 12.8536 12.9581 12.4845 12.9935C11.6825 13.0707 11.0734 12.4392 10.2965 11.9067C9.08081 11.0733 8.39404 10.5546 7.21411 9.74133C5.85034 8.80157 6.73438 8.28503 7.5116 7.44092C7.71497 7.21997 11.249 3.85834 11.3174 3.55341C11.326 3.51526 11.334 3.37311 11.2532 3.29803C11.1724 3.22296 11.0532 3.24866 10.9672 3.26904C10.8452 3.29797 8.9032 4.64032 5.14111 7.29608C4.58997 7.69196 4.09058 7.88483 3.64331 7.87469C3.15015 7.86359 2.20142 7.58313 1.49622 7.34338C0.631226 7.04932 -0.0562744 6.89386 0.00366211 6.39447C0.03479 6.1344 0.377319 5.86841 1.03113 5.5965Z" fill="#101010" fill-opacity="1.000000" fill-rule="nonzero"/>
</svg>
