<svg width="13.333374" height="13.333374" viewBox="0 0 13.3334 13.3334" fill="none" xmlns="http://www.w3.org/2000/svg" xmlns:xlink="http://www.w3.org/1999/xlink">
	<desc>
			Created with Pixso.
	</desc>
	<defs/>
	<path id="Vector" d="M6.66675 0C2.98462 0 0 2.9845 0 6.66663C0 10.3488 2.98462 13.3334 6.66675 13.3334C10.3489 13.3334 13.3334 10.3488 13.3334 6.66663C13.3334 2.9845 10.3489 0 6.66675 0ZM1 6.66663C1 3.53687 3.53687 1 6.66675 1C9.79663 1 12.3334 3.53687 12.3334 6.66663C12.3334 9.79651 9.79663 12.3334 6.66675 12.3334C3.53687 12.3334 1 9.79651 1 6.66663ZM6.94116 3.89758C6.94116 3.62146 6.71729 3.39758 6.44116 3.39758C6.16504 3.39758 5.94116 3.62146 5.94116 3.89758L5.94116 7.12891C5.94116 7.30505 6.03369 7.46814 6.18481 7.55835L8.69824 9.05762C8.9353 9.1991 9.24243 9.12158 9.38379 8.8844C9.52539 8.64722 9.44775 8.34033 9.21045 8.19885L6.94116 6.84497L6.94116 3.89758Z" fill="#101010" fill-opacity="1.000000" fill-rule="evenodd"/>
</svg>
