<svg width="88.618347" height="23.870667" viewBox="0 0 88.6183 23.8707" fill="none" xmlns="http://www.w3.org/2000/svg" xmlns:xlink="http://www.w3.org/1999/xlink">
	<desc>
			Created with Pixso.
	</desc>
	<defs/>
	<path id="Union" d="M2.84607 0L2.84607 23.8707L0 23.8707L0 0L2.84607 0ZM7.88861 0L7.88861 23.8707L5.04254 23.8707L5.04254 0L7.88861 0ZM12.9318 0L12.9318 23.8707L10.0858 23.8707L10.0858 0L12.9318 0ZM17.978 0L17.978 23.8707L15.1319 23.8707L15.1319 0L17.978 0ZM23.0245 0L23.0245 23.8707L20.1785 23.8707L20.1785 0L23.0245 0ZM28.0754 0L28.0754 23.8707L25.2293 23.8707L25.2293 0L28.0754 0ZM33.1135 0L33.1135 23.8707L30.2674 23.8707L30.2674 0L33.1135 0ZM38.1605 0L38.1605 23.8707L35.3144 23.8707L35.3144 0L38.1605 0ZM43.2071 0L43.2071 23.8707L40.361 23.8707L40.361 0L43.2071 0ZM48.2541 0L48.2541 23.8707L45.408 23.8707L45.408 0L48.2541 0ZM53.2961 0L53.2961 23.8707L50.45 23.8707L50.45 0L53.2961 0ZM58.3391 0L58.3391 23.8707L55.493 23.8707L55.493 0L58.3391 0ZM63.3935 0L63.3935 23.8707L60.5474 23.8707L60.5474 0L63.3935 0ZM68.4367 0L68.4367 23.8707L65.5906 23.8707L65.5906 0L68.4367 0ZM73.4789 0L73.4789 23.8707L70.6329 23.8707L70.6329 0L73.4789 0ZM78.5255 0L78.5255 23.8707L75.6794 23.8707L75.6794 0L78.5255 0ZM83.5724 0L83.5724 23.8707L80.7264 23.8707L80.7264 0L83.5724 0ZM88.6183 0L88.6183 23.8707L85.7723 23.8707L85.7723 0L88.6183 0Z" clip-rule="evenodd" fill="#000000" fill-opacity="1.000000" fill-rule="evenodd"/>
</svg>
