<svg width="17.002930" height="17.004089" viewBox="0 0 17.0029 17.0041" fill="none" xmlns="http://www.w3.org/2000/svg" xmlns:xlink="http://www.w3.org/1999/xlink">
	<desc>
			Created with Pixso.
	</desc>
	<defs/>
	<path id="Vector" d="M16.5009 0.502014L11.0338 5.96906L4.21448 12.7889L0.502075 16.502M4.21448 12.7889C4.03723 12.6863 3.86926 12.621 3.72009 12.6116C2.42334 12.5184 1.91956 12.6676 1.21057 12.0612C0.445679 11.4081 0.501587 9.66351 0.501587 8.38538C0.501587 7.10724 0.445679 5.36267 1.21057 4.70959C1.91956 4.10321 2.42334 4.26178 3.72009 4.15918C5.01672 4.05652 7.7594 0.10083 9.87708 1.35101C10.7352 2.05072 10.9685 3.35681 11.0338 5.96906M11.0338 10.4192C10.9965 13.2927 10.7726 14.6921 9.87708 15.4198C8.89746 15.9982 7.78735 15.4664 6.74255 14.7108" stroke="#9B9B9B" stroke-opacity="1.000000" stroke-width="1.000000" stroke-linejoin="round"/>
</svg>
