<svg width="15.425903" height="9.333374" viewBox="0 0 15.4259 9.33337" fill="none" xmlns="http://www.w3.org/2000/svg" xmlns:xlink="http://www.w3.org/1999/xlink">
	<desc>
			Created with Pixso.
	</desc>
	<defs/>
	<path id="Vector" d="M6.17041 6.66663L10.1733 4.66663L6.17041 2.66663L6.17041 6.66663ZM15.0865 1.44666C15.1869 1.76001 15.2562 2.18005 15.3025 2.71338C15.3566 3.2467 15.3796 3.70667 15.3796 4.10669L15.4259 4.66663C15.4259 6.12671 15.3025 7.19995 15.0865 7.88672C14.8938 8.48669 14.4464 8.87329 13.7522 9.04004C13.3898 9.12671 12.7264 9.18665 11.7083 9.22668C10.7056 9.27332 9.78784 9.29333 8.93945 9.29333L7.71289 9.33337C4.4812 9.33337 2.46826 9.22668 1.67383 9.04004C0.979492 8.87329 0.532227 8.48669 0.339355 7.88672C0.239014 7.57336 0.169678 7.15332 0.123291 6.62C0.0693359 6.08667 0.0463867 5.62671 0.0463867 5.22668L0 4.66663C0 3.20667 0.123291 2.1333 0.339355 1.44666C0.532227 0.84668 0.979492 0.459961 1.67383 0.293335C2.03613 0.206665 2.69946 0.146606 3.71777 0.106689C4.72046 0.0600586 5.63818 0.0400391 6.48657 0.0400391L7.71289 0C10.9448 0 12.9578 0.106689 13.7522 0.293335C14.4464 0.459961 14.8938 0.84668 15.0865 1.44666Z" fill="#101010" fill-opacity="1.000000" fill-rule="nonzero"/>
</svg>
