<svg width="14.750000" height="17.250000" viewBox="0 0 14.75 17.25" fill="none" xmlns="http://www.w3.org/2000/svg" xmlns:xlink="http://www.w3.org/1999/xlink">
	<desc>
			Created with Pixso.
	</desc>
	<defs/>
	<path id="Vector" d="M11.75 0C10.0931 0 8.75 1.34314 8.75 3C8.75 3.4187 8.83582 3.81738 8.99072 4.17938L5.2179 6.6048C4.66919 6.00281 3.87866 5.625 3 5.625C1.34314 5.625 0 6.96814 0 8.625C0 10.2819 1.34314 11.625 3 11.625C3.87878 11.625 4.66919 11.2472 5.2179 10.6451L8.99072 13.0706C8.83582 13.4326 8.75 13.8312 8.75 14.25C8.75 15.9069 10.0931 17.25 11.75 17.25C13.4069 17.25 14.75 15.9069 14.75 14.25C14.75 12.5931 13.4069 11.25 11.75 11.25C10.8713 11.25 10.0808 11.6278 9.5321 12.2298L5.75928 9.80438C5.91418 9.44232 6 9.0437 6 8.625C6 8.2063 5.91418 7.80762 5.75928 7.44556L9.5321 5.02014C10.0808 5.62219 10.8712 6 11.75 6C13.4069 6 14.75 4.65686 14.75 3C14.75 1.34314 13.4069 0 11.75 0Z" fill="#101010" fill-opacity="1.000000" fill-rule="evenodd"/>
</svg>
