<svg width="1922.000732" height="181.666687" viewBox="0 0 1922 181.667" fill="none" xmlns="http://www.w3.org/2000/svg" xmlns:xlink="http://www.w3.org/1999/xlink">
	<desc>
			Created with Pixso.
	</desc>
	<defs/>
	<path id="Vector 167" d="M1 74.6667L1 181.667" stroke="#101010" stroke-opacity="1.000000" stroke-width="2.000000"/>
	<path id="Vector 168" d="M19.4614 74.6667L19.4614 181.667" stroke="#101010" stroke-opacity="1.000000" stroke-width="2.000000"/>
	<path id="Vector 169" d="M37.9231 74.6667L37.9231 181.667" stroke="#101010" stroke-opacity="1.000000" stroke-width="2.000000"/>
	<path id="Vector 170" d="M56.3845 74.6667L56.3845 181.667" stroke="#101010" stroke-opacity="1.000000" stroke-width="2.000000"/>
	<path id="Vector 171" d="M74.8462 74.6667L74.8462 181.667" stroke="#101010" stroke-opacity="1.000000" stroke-width="2.000000"/>
	<path id="Vector 172" d="M93.3076 74.6667L93.3076 181.667" stroke="#101010" stroke-opacity="1.000000" stroke-width="2.000000"/>
	<path id="Vector 173" d="M111.769 74.6667L111.769 181.667" stroke="#101010" stroke-opacity="1.000000" stroke-width="2.000000"/>
	<path id="Vector 174" d="M130.231 74.6667L130.231 181.667" stroke="#101010" stroke-opacity="1.000000" stroke-width="2.000000"/>
	<path id="Vector 175" d="M148.692 74.6667L148.692 181.667" stroke="#101010" stroke-opacity="1.000000" stroke-width="2.000000"/>
	<path id="Vector 176" d="M167.154 74.6667L167.154 181.667" stroke="#101010" stroke-opacity="1.000000" stroke-width="2.000000"/>
	<path id="Vector 177" d="M185.615 74.6667L185.615 181.667" stroke="#101010" stroke-opacity="1.000000" stroke-width="2.000000"/>
	<path id="Vector 178" d="M204.077 74.6667L204.077 181.667" stroke="#101010" stroke-opacity="1.000000" stroke-width="2.000000"/>
	<path id="Vector 179" d="M222.538 74.6667L222.538 181.667" stroke="#101010" stroke-opacity="1.000000" stroke-width="2.000000"/>
	<path id="Vector 180" d="M241 74.6667L241 181.667" stroke="#101010" stroke-opacity="1.000000" stroke-width="2.000000"/>
	<path id="Vector 181" d="M259.461 74.6667L259.461 181.667" stroke="#101010" stroke-opacity="1.000000" stroke-width="2.000000"/>
	<path id="Vector 182" d="M277.923 74.6667L277.923 181.667" stroke="#101010" stroke-opacity="1.000000" stroke-width="2.000000"/>
	<path id="Vector 183" d="M296.385 74.6667L296.385 181.667" stroke="#101010" stroke-opacity="1.000000" stroke-width="2.000000"/>
	<path id="Vector 184" d="M314.846 74.6667L314.846 181.667" stroke="#101010" stroke-opacity="1.000000" stroke-width="2.000000"/>
	<path id="Vector 185" d="M333.308 74.6667L333.308 181.667" stroke="#101010" stroke-opacity="1.000000" stroke-width="2.000000"/>
	<path id="Vector 186" d="M351.769 74.6667L351.769 181.667" stroke="#101010" stroke-opacity="1.000000" stroke-width="2.000000"/>
	<path id="Vector 187" d="M370.231 74.6667L370.231 181.667" stroke="#101010" stroke-opacity="1.000000" stroke-width="2.000000"/>
	<path id="Vector 188" d="M388.692 74.6667L388.692 181.667" stroke="#101010" stroke-opacity="1.000000" stroke-width="2.000000"/>
	<path id="Vector 189" d="M407.154 74.6667L407.154 181.667" stroke="#101010" stroke-opacity="1.000000" stroke-width="2.000000"/>
	<path id="Vector 190" d="M425.615 74.6667L425.615 181.667" stroke="#101010" stroke-opacity="1.000000" stroke-width="2.000000"/>
	<path id="Vector 191" d="M444.077 74.6667L444.077 181.667" stroke="#101010" stroke-opacity="1.000000" stroke-width="2.000000"/>
	<path id="Vector 192" d="M462.539 74.6667L462.539 181.667" stroke="#101010" stroke-opacity="1.000000" stroke-width="2.000000"/>
	<path id="Vector 193" d="M481 74.6667L481 181.667" stroke="#101010" stroke-opacity="1.000000" stroke-width="2.000000"/>
	<path id="Vector 194" d="M499.462 74.6667L499.462 181.667" stroke="#101010" stroke-opacity="1.000000" stroke-width="2.000000"/>
	<path id="Vector 195" d="M517.923 74.6667L517.923 181.667" stroke="#101010" stroke-opacity="1.000000" stroke-width="2.000000"/>
	<path id="Vector 196" d="M536.385 74.6667L536.385 181.667" stroke="#101010" stroke-opacity="1.000000" stroke-width="2.000000"/>
	<path id="Vector 197" d="M554.846 74.6667L554.846 181.667" stroke="#101010" stroke-opacity="1.000000" stroke-width="2.000000"/>
	<path id="Vector 198" d="M573.308 74.6667L573.308 181.667" stroke="#101010" stroke-opacity="1.000000" stroke-width="2.000000"/>
	<path id="Vector 199" d="M591.769 74.6667L591.769 181.667" stroke="#101010" stroke-opacity="1.000000" stroke-width="2.000000"/>
	<path id="Vector 200" d="M610.231 74.6667L610.231 181.667" stroke="#101010" stroke-opacity="1.000000" stroke-width="2.000000"/>
	<path id="Vector 201" d="M628.692 74.6667L628.692 181.667" stroke="#101010" stroke-opacity="1.000000" stroke-width="2.000000"/>
	<path id="Vector 202" d="M647.154 74.6667L647.154 181.667" stroke="#101010" stroke-opacity="1.000000" stroke-width="2.000000"/>
	<path id="Vector 203" d="M665.615 74.6667L665.615 181.667" stroke="#101010" stroke-opacity="1.000000" stroke-width="2.000000"/>
	<path id="Vector 204" d="M684.077 74.6667L684.077 181.667" stroke="#101010" stroke-opacity="1.000000" stroke-width="2.000000"/>
	<path id="Vector 205" d="M702.539 74.6667L702.539 181.667" stroke="#101010" stroke-opacity="1.000000" stroke-width="2.000000"/>
	<path id="Vector 206" d="M721 74.6667L721 181.667" stroke="#101010" stroke-opacity="1.000000" stroke-width="2.000000"/>
	<path id="Vector 207" d="M739.462 74.6667L739.462 181.667" stroke="#101010" stroke-opacity="1.000000" stroke-width="2.000000"/>
	<path id="Vector 208" d="M757.923 74.6667L757.923 181.667" stroke="#101010" stroke-opacity="1.000000" stroke-width="2.000000"/>
	<path id="Vector 209" d="M776.385 74.6667L776.385 181.667" stroke="#101010" stroke-opacity="1.000000" stroke-width="2.000000"/>
	<path id="Vector 210" d="M794.846 74.6667L794.846 181.667" stroke="#101010" stroke-opacity="1.000000" stroke-width="2.000000"/>
	<path id="Vector 211" d="M813.308 74.6667L813.308 181.667" stroke="#101010" stroke-opacity="1.000000" stroke-width="2.000000"/>
	<path id="Vector 212" d="M831.77 74.6667L831.77 181.667" stroke="#101010" stroke-opacity="1.000000" stroke-width="2.000000"/>
	<path id="Vector 213" d="M850.231 74.6667L850.231 181.667" stroke="#101010" stroke-opacity="1.000000" stroke-width="2.000000"/>
	<path id="Vector 214" d="M868.693 74.6667L868.693 181.667" stroke="#101010" stroke-opacity="1.000000" stroke-width="2.000000"/>
	<path id="Vector 215" d="M887.154 74.6667L887.154 181.667" stroke="#101010" stroke-opacity="1.000000" stroke-width="2.000000"/>
	<path id="Vector 216" d="M905.616 74.6667L905.616 181.667" stroke="#101010" stroke-opacity="1.000000" stroke-width="2.000000"/>
	<path id="Vector 217" d="M924.077 74.6667L924.077 181.667" stroke="#101010" stroke-opacity="1.000000" stroke-width="2.000000"/>
	<path id="Vector 218" d="M942.539 74.6667L942.539 181.667" stroke="#101010" stroke-opacity="1.000000" stroke-width="2.000000"/>
	<path id="Vector 219" d="M961 74.6667L961 181.667" stroke="#101010" stroke-opacity="1.000000" stroke-width="2.000000"/>
	<path id="Vector 220" d="M979.462 74.6667L979.462 181.667" stroke="#101010" stroke-opacity="1.000000" stroke-width="2.000000"/>
	<path id="Vector 221" d="M997.923 74.6667L997.923 181.667" stroke="#101010" stroke-opacity="1.000000" stroke-width="2.000000"/>
	<path id="Vector 222" d="M1016.39 74.6667L1016.39 181.667" stroke="#101010" stroke-opacity="1.000000" stroke-width="2.000000"/>
	<path id="Vector 223" d="M1034.85 74.6667L1034.85 181.667" stroke="#101010" stroke-opacity="1.000000" stroke-width="2.000000"/>
	<path id="Vector 224" d="M1053.31 74.6667L1053.31 181.667" stroke="#101010" stroke-opacity="1.000000" stroke-width="2.000000"/>
	<path id="Vector 225" d="M1071.77 74.6667L1071.77 181.667" stroke="#101010" stroke-opacity="1.000000" stroke-width="2.000000"/>
	<path id="Vector 226" d="M1090.23 74.6667L1090.23 181.667" stroke="#101010" stroke-opacity="1.000000" stroke-width="2.000000"/>
	<path id="Vector 227" d="M1108.69 74.6667L1108.69 181.667" stroke="#101010" stroke-opacity="1.000000" stroke-width="2.000000"/>
	<path id="Vector 228" d="M1127.15 74.6667L1127.15 181.667" stroke="#101010" stroke-opacity="1.000000" stroke-width="2.000000"/>
	<path id="Vector 229" d="M1145.62 74.6667L1145.62 181.667" stroke="#101010" stroke-opacity="1.000000" stroke-width="2.000000"/>
	<path id="Vector 230" d="M1164.08 74.6667L1164.08 181.667" stroke="#101010" stroke-opacity="1.000000" stroke-width="2.000000"/>
	<path id="Vector 231" d="M1182.54 74.6667L1182.54 181.667" stroke="#101010" stroke-opacity="1.000000" stroke-width="2.000000"/>
	<path id="Vector 232" d="M1201 74.6667L1201 181.667" stroke="#101010" stroke-opacity="1.000000" stroke-width="2.000000"/>
	<path id="Vector 233" d="M1219.46 74.6667L1219.46 181.667" stroke="#101010" stroke-opacity="1.000000" stroke-width="2.000000"/>
	<path id="Vector 234" d="M1237.92 74.6667L1237.92 181.667" stroke="#101010" stroke-opacity="1.000000" stroke-width="2.000000"/>
	<path id="Vector 235" d="M1256.39 74.6667L1256.39 181.667" stroke="#101010" stroke-opacity="1.000000" stroke-width="2.000000"/>
	<path id="Vector 236" d="M1274.85 74.6667L1274.85 181.667" stroke="#101010" stroke-opacity="1.000000" stroke-width="2.000000"/>
	<path id="Vector 237" d="M1293.31 74.6667L1293.31 181.667" stroke="#101010" stroke-opacity="1.000000" stroke-width="2.000000"/>
	<path id="Vector 238" d="M1311.77 74.6667L1311.77 181.667" stroke="#101010" stroke-opacity="1.000000" stroke-width="2.000000"/>
	<path id="Vector 239" d="M1330.23 74.6667L1330.23 181.667" stroke="#101010" stroke-opacity="1.000000" stroke-width="2.000000"/>
	<path id="Vector 240" d="M1348.69 74.6667L1348.69 181.667" stroke="#101010" stroke-opacity="1.000000" stroke-width="2.000000"/>
	<path id="Vector 241" d="M1367.15 74.6667L1367.15 181.667" stroke="#101010" stroke-opacity="1.000000" stroke-width="2.000000"/>
	<path id="Vector 242" d="M1385.62 74.6667L1385.62 181.667" stroke="#101010" stroke-opacity="1.000000" stroke-width="2.000000"/>
	<path id="Vector 243" d="M1404.08 74.6667L1404.08 181.667" stroke="#101010" stroke-opacity="1.000000" stroke-width="2.000000"/>
	<path id="Vector 264" d="M1422.54 74.6667L1422.54 181.667" stroke="#101010" stroke-opacity="1.000000" stroke-width="2.000000"/>
	<path id="Vector 265" d="M1441 74.6667L1441 181.667" stroke="#101010" stroke-opacity="1.000000" stroke-width="2.000000"/>
	<path id="Vector 266" d="M1459.46 74.6667L1459.46 181.667" stroke="#101010" stroke-opacity="1.000000" stroke-width="2.000000"/>
	<path id="Vector 267" d="M1477.92 74.6667L1477.92 181.667" stroke="#101010" stroke-opacity="1.000000" stroke-width="2.000000"/>
	<path id="Vector 268" d="M1496.39 74.6667L1496.39 181.667" stroke="#101010" stroke-opacity="1.000000" stroke-width="2.000000"/>
	<path id="Vector 269" d="M1514.85 74.6667L1514.85 181.667" stroke="#101010" stroke-opacity="1.000000" stroke-width="2.000000"/>
	<path id="Vector 270" d="M1533.31 74.6667L1533.31 181.667" stroke="#101010" stroke-opacity="1.000000" stroke-width="2.000000"/>
	<path id="Vector 271" d="M1551.77 74.6667L1551.77 181.667" stroke="#101010" stroke-opacity="1.000000" stroke-width="2.000000"/>
	<path id="Vector 272" d="M1570.23 74.6667L1570.23 181.667" stroke="#101010" stroke-opacity="1.000000" stroke-width="2.000000"/>
	<path id="Vector 273" d="M1588.69 74.6667L1588.69 181.667" stroke="#101010" stroke-opacity="1.000000" stroke-width="2.000000"/>
	<path id="Vector 274" d="M1607.15 74.6667L1607.15 181.667" stroke="#101010" stroke-opacity="1.000000" stroke-width="2.000000"/>
	<path id="Vector 275" d="M1625.62 74.6667L1625.62 181.667" stroke="#101010" stroke-opacity="1.000000" stroke-width="2.000000"/>
	<path id="Vector 276" d="M1644.08 74.6667L1644.08 181.667" stroke="#101010" stroke-opacity="1.000000" stroke-width="2.000000"/>
	<path id="Vector 277" d="M1662.54 74.6667L1662.54 181.667" stroke="#101010" stroke-opacity="1.000000" stroke-width="2.000000"/>
	<path id="Vector 244" d="M1681 74.6667L1681 181.667" stroke="#101010" stroke-opacity="1.000000" stroke-width="2.000000"/>
	<path id="Vector 245" d="M1699.46 74.6667L1699.46 181.667" stroke="#101010" stroke-opacity="1.000000" stroke-width="2.000000"/>
	<path id="Vector 246" d="M1717.92 74.6667L1717.92 181.667" stroke="#101010" stroke-opacity="1.000000" stroke-width="2.000000"/>
	<path id="Vector 247" d="M1736.39 74.6667L1736.39 181.667" stroke="#101010" stroke-opacity="1.000000" stroke-width="2.000000"/>
	<path id="Vector 248" d="M1754.85 74.6667L1754.85 181.667" stroke="#101010" stroke-opacity="1.000000" stroke-width="2.000000"/>
	<path id="Vector 249" d="M1773.31 74.6667L1773.31 181.667" stroke="#101010" stroke-opacity="1.000000" stroke-width="2.000000"/>
	<path id="Vector 250" d="M1791.77 74.6667L1791.77 181.667" stroke="#101010" stroke-opacity="1.000000" stroke-width="2.000000"/>
	<path id="Vector 255" d="M1810.23 74.6667L1810.23 181.667" stroke="#101010" stroke-opacity="1.000000" stroke-width="2.000000"/>
	<path id="Vector 256" d="M1828.69 74.6667L1828.69 181.667" stroke="#101010" stroke-opacity="1.000000" stroke-width="2.000000"/>
	<path id="Vector 257" d="M1847.15 74.6667L1847.15 181.667" stroke="#101010" stroke-opacity="1.000000" stroke-width="2.000000"/>
	<path id="Vector 258" d="M1865.62 74.6667L1865.62 181.667" stroke="#101010" stroke-opacity="1.000000" stroke-width="2.000000"/>
	<path id="Vector 259" d="M1884.08 74.6667L1884.08 181.667" stroke="#101010" stroke-opacity="1.000000" stroke-width="2.000000"/>
	<path id="Vector 261" d="M1902.54 74.6667L1902.54 181.667" stroke="#101010" stroke-opacity="1.000000" stroke-width="2.000000"/>
	<path id="Vector 263" d="M1921 74.6667L1921 181.667" stroke="#101010" stroke-opacity="1.000000" stroke-width="2.000000"/>
	<path id="Rectangle 62" d="M43.6667 160C297.667 160 337.667 93.3333 447.667 93.3333C557.667 93.3333 603 160 832.333 160L1921 160L1921 0L1 0L1 160L43.6667 160Z" fill="#FBFBFB" fill-opacity="1.000000" fill-rule="evenodd"/>
</svg>
