<svg width="445.996094" height="408.000000" viewBox="0 0 445.996 408" fill="none" xmlns="http://www.w3.org/2000/svg" xmlns:xlink="http://www.w3.org/1999/xlink">
	<desc>
			Created with Pixso.
	</desc>
	<defs/>
	<path id="пешком  от метро Китай-город" d="M251.756 112.86L251.756 101.2L261.436 101.2L261.436 112.86L259.5 112.86L259.5 102.916L253.692 102.916L253.692 112.86L251.756 112.86ZM269.788 113.08C269.039 113.08 268.328 112.963 267.654 112.728C266.979 112.493 266.385 112.134 265.871 111.65C265.358 111.151 264.948 110.528 264.639 109.78C264.332 109.032 264.177 108.152 264.177 107.14L264.177 106.7C264.177 105.732 264.324 104.896 264.617 104.192C264.911 103.473 265.299 102.879 265.784 102.41C266.282 101.926 266.854 101.567 267.5 101.332C268.159 101.097 268.849 100.98 269.568 100.98C271.284 100.98 272.611 101.449 273.549 102.388C274.488 103.327 274.957 104.654 274.957 106.37L274.957 107.602L266.113 107.602C266.113 108.277 266.224 108.856 266.444 109.34C266.664 109.809 266.949 110.191 267.302 110.484C267.654 110.777 268.042 110.99 268.467 111.122C268.908 111.254 269.348 111.32 269.788 111.32C270.668 111.32 271.342 111.173 271.811 110.88C272.296 110.587 272.64 110.183 272.845 109.67L274.737 109.67C274.62 110.227 274.408 110.719 274.099 111.144C273.806 111.569 273.44 111.929 273 112.222C272.574 112.501 272.083 112.713 271.526 112.86C270.983 113.007 270.404 113.08 269.788 113.08ZM266.113 106.018L273.132 106.018C273.117 105.417 273.014 104.911 272.823 104.5C272.647 104.075 272.405 103.737 272.098 103.488C271.789 103.224 271.423 103.033 270.997 102.916C270.587 102.799 270.147 102.74 269.677 102.74C269.223 102.74 268.783 102.806 268.358 102.938C267.932 103.055 267.551 103.253 267.214 103.532C266.891 103.796 266.627 104.133 266.422 104.544C266.216 104.955 266.113 105.446 266.113 106.018ZM277.709 112.86L277.709 101.2L279.645 101.2L279.645 111.144L283.891 111.144L283.891 101.2L285.827 101.2L285.827 111.144L290.073 111.144L290.073 101.2L292.009 101.2L292.009 112.86L277.709 112.86ZM295.52 112.86L295.52 101.2L297.456 101.2L297.456 106.084L298.996 106.084L303.352 101.2L305.64 101.2L300.58 106.788L305.86 112.86L303.396 112.86L298.996 107.756L297.456 107.756L297.456 112.86L295.52 112.86ZM312.584 113.08C311.836 113.08 311.125 112.963 310.45 112.728C309.776 112.479 309.182 112.112 308.668 111.628C308.155 111.129 307.744 110.506 307.436 109.758C307.128 109.01 306.974 108.137 306.974 107.14L306.974 106.7C306.974 105.747 307.128 104.918 307.436 104.214C307.744 103.495 308.155 102.901 308.668 102.432C309.182 101.948 309.776 101.589 310.45 101.354C311.125 101.105 311.836 100.98 312.584 100.98C313.332 100.98 314.044 101.105 314.718 101.354C315.393 101.589 315.987 101.948 316.5 102.432C317.014 102.901 317.424 103.495 317.732 104.214C318.04 104.918 318.194 105.747 318.194 106.7L318.194 107.14C318.194 108.137 318.04 109.01 317.732 109.758C317.424 110.506 317.014 111.129 316.5 111.628C315.987 112.112 315.393 112.479 314.718 112.728C314.044 112.963 313.332 113.08 312.584 113.08ZM312.584 111.32C313.024 111.32 313.464 111.247 313.904 111.1C314.344 110.939 314.733 110.697 315.07 110.374C315.408 110.037 315.679 109.604 315.884 109.076C316.104 108.548 316.214 107.903 316.214 107.14L316.214 106.7C316.214 105.996 316.104 105.395 315.884 104.896C315.679 104.397 315.408 103.987 315.07 103.664C314.733 103.341 314.344 103.107 313.904 102.96C313.464 102.813 313.024 102.74 312.584 102.74C312.144 102.74 311.704 102.813 311.264 102.96C310.824 103.107 310.436 103.341 310.098 103.664C309.761 103.987 309.482 104.397 309.262 104.896C309.057 105.395 308.954 105.996 308.954 106.7L308.954 107.14C308.954 107.903 309.057 108.548 309.262 109.076C309.482 109.604 309.761 110.037 310.098 110.374C310.436 110.697 310.824 110.939 311.264 111.1C311.704 111.247 312.144 111.32 312.584 111.32ZM320.936 112.86L320.936 101.2L323.004 101.2L327.162 108.46L331.32 101.2L333.256 101.2L333.256 112.86L331.32 112.86L331.32 104.39L327.866 110.33L326.326 110.33L322.872 104.39L322.872 112.86L320.936 112.86ZM256.596 144.08C255.848 144.08 255.137 143.963 254.462 143.728C253.787 143.479 253.193 143.112 252.68 142.628C252.167 142.129 251.756 141.506 251.448 140.758C251.14 140.01 250.986 139.137 250.986 138.14L250.986 137.7C250.986 136.747 251.14 135.918 251.448 135.214C251.756 134.495 252.167 133.901 252.68 133.432C253.193 132.948 253.787 132.589 254.462 132.354C255.137 132.105 255.848 131.98 256.596 131.98C257.344 131.98 258.055 132.105 258.73 132.354C259.405 132.589 259.999 132.948 260.512 133.432C261.025 133.901 261.436 134.495 261.744 135.214C262.052 135.918 262.206 136.747 262.206 137.7L262.206 138.14C262.206 139.137 262.052 140.01 261.744 140.758C261.436 141.506 261.025 142.129 260.512 142.628C259.999 143.112 259.405 143.479 258.73 143.728C258.055 143.963 257.344 144.08 256.596 144.08ZM256.596 142.32C257.036 142.32 257.476 142.247 257.916 142.1C258.356 141.939 258.745 141.697 259.082 141.374C259.419 141.037 259.691 140.604 259.896 140.076C260.116 139.548 260.226 138.903 260.226 138.14L260.226 137.7C260.226 136.996 260.116 136.395 259.896 135.896C259.691 135.397 259.419 134.987 259.082 134.664C258.745 134.341 258.356 134.107 257.916 133.96C257.476 133.813 257.036 133.74 256.596 133.74C256.156 133.74 255.716 133.813 255.276 133.96C254.836 134.107 254.447 134.341 254.11 134.664C253.773 134.987 253.494 135.397 253.274 135.896C253.069 136.395 252.966 136.996 252.966 137.7L252.966 138.14C252.966 138.903 253.069 139.548 253.274 140.076C253.494 140.604 253.773 141.037 254.11 141.374C254.447 141.697 254.836 141.939 255.276 142.1C255.716 142.247 256.156 142.32 256.596 142.32ZM267.395 143.86L267.395 133.916L263.413 133.916L263.413 132.2L273.313 132.2L273.313 133.916L269.331 133.916L269.331 143.86L267.395 143.86ZM281.018 143.86L281.018 132.2L283.086 132.2L287.244 139.46L291.402 132.2L293.338 132.2L293.338 143.86L291.402 143.86L291.402 135.39L287.948 141.33L286.408 141.33L282.954 135.39L282.954 143.86L281.018 143.86ZM301.692 144.08C300.944 144.08 300.232 143.963 299.558 143.728C298.883 143.493 298.289 143.134 297.776 142.65C297.262 142.151 296.852 141.528 296.544 140.78C296.236 140.032 296.082 139.152 296.082 138.14L296.082 137.7C296.082 136.732 296.228 135.896 296.522 135.192C296.815 134.473 297.204 133.879 297.688 133.41C298.186 132.926 298.758 132.567 299.404 132.332C300.064 132.097 300.753 131.98 301.472 131.98C303.188 131.98 304.515 132.449 305.454 133.388C306.392 134.327 306.862 135.654 306.862 137.37L306.862 138.602L298.018 138.602C298.018 139.277 298.128 139.856 298.348 140.34C298.568 140.809 298.854 141.191 299.206 141.484C299.558 141.777 299.946 141.99 300.372 142.122C300.812 142.254 301.252 142.32 301.692 142.32C302.572 142.32 303.246 142.173 303.716 141.88C304.2 141.587 304.544 141.183 304.75 140.67L306.642 140.67C306.524 141.227 306.312 141.719 306.004 142.144C305.71 142.569 305.344 142.929 304.904 143.222C304.478 143.501 303.987 143.713 303.43 143.86C302.887 144.007 302.308 144.08 301.692 144.08ZM298.018 137.018L305.036 137.018C305.021 136.417 304.918 135.911 304.728 135.5C304.552 135.075 304.31 134.737 304.002 134.488C303.694 134.224 303.327 134.033 302.902 133.916C302.491 133.799 302.051 133.74 301.582 133.74C301.127 133.74 300.687 133.806 300.262 133.938C299.836 134.055 299.455 134.253 299.118 134.532C298.795 134.796 298.531 135.133 298.326 135.544C298.12 135.955 298.018 136.446 298.018 137.018ZM312.061 143.86L312.061 133.916L308.079 133.916L308.079 132.2L317.979 132.2L317.979 133.916L313.997 133.916L313.997 143.86L312.061 143.86ZM320.184 148.26L320.184 132.2L321.988 132.2L321.988 134.4C322.193 134.004 322.435 133.659 322.714 133.366C322.992 133.058 323.308 132.801 323.66 132.596C324.012 132.391 324.393 132.237 324.804 132.134C325.214 132.031 325.654 131.98 326.124 131.98C326.857 131.98 327.517 132.105 328.104 132.354C328.705 132.589 329.219 132.948 329.644 133.432C330.069 133.901 330.392 134.495 330.612 135.214C330.846 135.918 330.964 136.747 330.964 137.7L330.964 138.14C330.964 139.123 330.846 139.988 330.612 140.736C330.377 141.484 330.047 142.107 329.622 142.606C329.197 143.09 328.683 143.457 328.082 143.706C327.495 143.955 326.842 144.08 326.124 144.08C325.126 144.08 324.29 143.86 323.616 143.42C322.956 142.98 322.457 142.43 322.12 141.77L322.12 148.26L320.184 148.26ZM325.684 142.364C326.153 142.364 326.593 142.276 327.004 142.1C327.414 141.909 327.766 141.638 328.06 141.286C328.368 140.934 328.602 140.494 328.764 139.966C328.94 139.438 329.028 138.829 329.028 138.14L329.028 137.7C329.028 137.055 328.94 136.49 328.764 136.006C328.602 135.507 328.368 135.089 328.06 134.752C327.766 134.4 327.414 134.136 327.004 133.96C326.593 133.784 326.153 133.696 325.684 133.696C325.156 133.696 324.672 133.784 324.232 133.96C323.792 134.121 323.418 134.356 323.11 134.664C322.802 134.957 322.56 135.309 322.384 135.72C322.208 136.131 322.12 136.571 322.12 137.04L322.12 138.8C322.12 139.328 322.208 139.812 322.384 140.252C322.56 140.692 322.802 141.066 323.11 141.374C323.418 141.682 323.792 141.924 324.232 142.1C324.672 142.276 325.156 142.364 325.684 142.364ZM338.559 144.08C337.811 144.08 337.1 143.963 336.425 143.728C335.75 143.479 335.156 143.112 334.643 142.628C334.13 142.129 333.719 141.506 333.411 140.758C333.103 140.01 332.949 139.137 332.949 138.14L332.949 137.7C332.949 136.747 333.103 135.918 333.411 135.214C333.719 134.495 334.13 133.901 334.643 133.432C335.156 132.948 335.75 132.589 336.425 132.354C337.1 132.105 337.811 131.98 338.559 131.98C339.307 131.98 340.018 132.105 340.693 132.354C341.368 132.589 341.962 132.948 342.475 133.432C342.988 133.901 343.399 134.495 343.707 135.214C344.015 135.918 344.169 136.747 344.169 137.7L344.169 138.14C344.169 139.137 344.015 140.01 343.707 140.758C343.399 141.506 342.988 142.129 342.475 142.628C341.962 143.112 341.368 143.479 340.693 143.728C340.018 143.963 339.307 144.08 338.559 144.08ZM338.559 142.32C338.999 142.32 339.439 142.247 339.879 142.1C340.319 141.939 340.708 141.697 341.045 141.374C341.382 141.037 341.654 140.604 341.859 140.076C342.079 139.548 342.189 138.903 342.189 138.14L342.189 137.7C342.189 136.996 342.079 136.395 341.859 135.896C341.654 135.397 341.382 134.987 341.045 134.664C340.708 134.341 340.319 134.107 339.879 133.96C339.439 133.813 338.999 133.74 338.559 133.74C338.119 133.74 337.679 133.813 337.239 133.96C336.799 134.107 336.41 134.341 336.073 134.664C335.736 134.987 335.457 135.397 335.237 135.896C335.032 136.395 334.929 136.996 334.929 137.7L334.929 138.14C334.929 138.903 335.032 139.548 335.237 140.076C335.457 140.604 335.736 141.037 336.073 141.374C336.41 141.697 336.799 141.939 337.239 142.1C337.679 142.247 338.119 142.32 338.559 142.32ZM252.196 174.86L252.196 159.46L254.264 159.46L254.264 166.082L256.024 166.082L262.052 159.46L264.516 159.46L257.784 166.808L264.736 174.86L262.096 174.86L256.024 167.798L254.264 167.798L254.264 174.86L252.196 174.86ZM267.16 174.86L267.16 163.2L269.096 163.2L269.096 172L275.124 163.2L277.06 163.2L277.06 174.86L275.124 174.86L275.124 166.06L269.096 174.86L267.16 174.86ZM283.25 174.86L283.25 164.916L279.268 164.916L279.268 163.2L289.168 163.2L289.168 164.916L285.186 164.916L285.186 174.86L283.25 174.86ZM294.266 175.08C293.635 175.08 293.07 174.992 292.572 174.816C292.073 174.625 291.655 174.369 291.318 174.046C290.98 173.723 290.724 173.342 290.548 172.902C290.372 172.462 290.284 171.978 290.284 171.45C290.284 170.878 290.372 170.387 290.548 169.976C290.724 169.551 290.973 169.206 291.296 168.942C291.633 168.678 292.051 168.487 292.55 168.37C293.048 168.238 293.613 168.172 294.244 168.172L298.028 168.172L298.028 167.38C298.028 166.881 297.969 166.463 297.852 166.126C297.749 165.789 297.58 165.517 297.346 165.312C297.126 165.107 296.847 164.96 296.51 164.872C296.172 164.784 295.784 164.74 295.344 164.74C294.933 164.74 294.574 164.784 294.266 164.872C293.972 164.96 293.723 165.077 293.518 165.224C293.327 165.356 293.18 165.517 293.078 165.708C292.975 165.884 292.909 166.075 292.88 166.28L290.944 166.28C290.973 165.811 291.098 165.378 291.318 164.982C291.552 164.571 291.86 164.219 292.242 163.926C292.638 163.633 293.107 163.405 293.65 163.244C294.192 163.068 294.794 162.98 295.454 162.98C296.143 162.98 296.766 163.061 297.324 163.222C297.881 163.369 298.35 163.611 298.732 163.948C299.128 164.285 299.428 164.718 299.634 165.246C299.854 165.774 299.964 166.412 299.964 167.16L299.964 171.89C299.964 172.506 299.964 173.049 299.964 173.518C299.978 173.973 300.015 174.42 300.074 174.86L298.38 174.86C298.336 174.523 298.306 174.207 298.292 173.914C298.277 173.606 298.27 173.261 298.27 172.88C298.123 173.188 297.918 173.474 297.654 173.738C297.404 174.002 297.111 174.237 296.774 174.442C296.436 174.633 296.055 174.787 295.63 174.904C295.204 175.021 294.75 175.08 294.266 175.08ZM294.684 173.32C295.138 173.32 295.564 173.261 295.96 173.144C296.37 173.012 296.73 172.829 297.038 172.594C297.346 172.345 297.588 172.044 297.764 171.692C297.94 171.325 298.028 170.915 298.028 170.46L298.028 169.668L294.574 169.668C293.855 169.668 293.29 169.815 292.88 170.108C292.469 170.387 292.264 170.834 292.264 171.45C292.264 171.993 292.454 172.44 292.836 172.792C293.232 173.144 293.848 173.32 294.684 173.32ZM303.383 174.86L303.383 163.2L305.319 163.2L305.319 172L311.347 163.2L313.283 163.2L313.283 174.86L311.347 174.86L311.347 166.06L305.319 174.86L303.383 174.86ZM308.333 161.77C307.761 161.77 307.262 161.711 306.837 161.594C306.426 161.462 306.089 161.279 305.825 161.044C305.561 160.795 305.363 160.494 305.231 160.142C305.099 159.775 305.033 159.365 305.033 158.91L306.925 158.91C306.925 159.409 307.042 159.783 307.277 160.032C307.512 160.281 307.864 160.406 308.333 160.406C308.817 160.406 309.176 160.281 309.411 160.032C309.66 159.783 309.785 159.409 309.785 158.91L311.633 158.91C311.633 159.365 311.567 159.775 311.435 160.142C311.303 160.494 311.105 160.795 310.841 161.044C310.577 161.279 310.232 161.462 309.807 161.594C309.396 161.711 308.905 161.77 308.333 161.77ZM315.931 169.602L315.931 167.798L322.531 167.798L322.531 169.602L315.931 169.602ZM325.168 174.86L325.168 163.2L333.088 163.2L333.088 164.916L327.104 164.916L327.104 174.86L325.168 174.86ZM339.913 175.08C339.164 175.08 338.453 174.963 337.779 174.728C337.104 174.479 336.51 174.112 335.996 173.628C335.483 173.129 335.073 172.506 334.764 171.758C334.456 171.01 334.302 170.137 334.302 169.14L334.302 168.7C334.302 167.747 334.456 166.918 334.764 166.214C335.073 165.495 335.483 164.901 335.996 164.432C336.51 163.948 337.104 163.589 337.779 163.354C338.453 163.105 339.164 162.98 339.913 162.98C340.66 162.98 341.372 163.105 342.047 163.354C342.721 163.589 343.315 163.948 343.828 164.432C344.342 164.901 344.753 165.495 345.06 166.214C345.368 166.918 345.522 167.747 345.522 168.7L345.522 169.14C345.522 170.137 345.368 171.01 345.06 171.758C344.753 172.506 344.342 173.129 343.828 173.628C343.315 174.112 342.721 174.479 342.047 174.728C341.372 174.963 340.66 175.08 339.913 175.08ZM339.913 173.32C340.353 173.32 340.793 173.247 341.232 173.1C341.672 172.939 342.061 172.697 342.398 172.374C342.736 172.037 343.007 171.604 343.212 171.076C343.432 170.548 343.543 169.903 343.543 169.14L343.543 168.7C343.543 167.996 343.432 167.395 343.212 166.896C343.007 166.397 342.736 165.987 342.398 165.664C342.061 165.341 341.672 165.107 341.232 164.96C340.793 164.813 340.353 164.74 339.913 164.74C339.473 164.74 339.033 164.813 338.592 164.96C338.152 165.107 337.764 165.341 337.427 165.664C337.089 165.987 336.81 166.397 336.591 166.896C336.385 167.395 336.283 167.996 336.283 168.7L336.283 169.14C336.283 169.903 336.385 170.548 336.591 171.076C336.81 171.604 337.089 172.037 337.427 172.374C337.764 172.697 338.152 172.939 338.592 173.1C339.033 173.247 339.473 173.32 339.913 173.32ZM348.264 179.26L348.264 163.2L350.068 163.2L350.068 165.4C350.273 165.004 350.515 164.659 350.794 164.366C351.073 164.058 351.388 163.801 351.74 163.596C352.092 163.391 352.473 163.237 352.884 163.134C353.295 163.031 353.735 162.98 354.204 162.98C354.937 162.98 355.597 163.105 356.184 163.354C356.785 163.589 357.299 163.948 357.724 164.432C358.149 164.901 358.472 165.495 358.692 166.214C358.927 166.918 359.044 167.747 359.044 168.7L359.044 169.14C359.044 170.123 358.927 170.988 358.692 171.736C358.457 172.484 358.127 173.107 357.702 173.606C357.277 174.09 356.763 174.457 356.162 174.706C355.575 174.955 354.923 175.08 354.204 175.08C353.207 175.08 352.371 174.86 351.696 174.42C351.036 173.98 350.537 173.43 350.2 172.77L350.2 179.26L348.264 179.26ZM353.764 173.364C354.233 173.364 354.673 173.276 355.084 173.1C355.495 172.909 355.847 172.638 356.14 172.286C356.448 171.934 356.683 171.494 356.844 170.966C357.02 170.438 357.108 169.829 357.108 169.14L357.108 168.7C357.108 168.055 357.02 167.49 356.844 167.006C356.683 166.507 356.448 166.089 356.14 165.752C355.847 165.4 355.495 165.136 355.084 164.96C354.673 164.784 354.233 164.696 353.764 164.696C353.236 164.696 352.752 164.784 352.312 164.96C351.872 165.121 351.498 165.356 351.19 165.664C350.882 165.957 350.64 166.309 350.464 166.72C350.288 167.131 350.2 167.571 350.2 168.04L350.2 169.8C350.2 170.328 350.288 170.812 350.464 171.252C350.64 171.692 350.882 172.066 351.19 172.374C351.498 172.682 351.872 172.924 352.312 173.1C352.752 173.276 353.236 173.364 353.764 173.364ZM366.639 175.08C365.891 175.08 365.18 174.963 364.505 174.728C363.83 174.479 363.236 174.112 362.723 173.628C362.21 173.129 361.799 172.506 361.491 171.758C361.183 171.01 361.029 170.137 361.029 169.14L361.029 168.7C361.029 167.747 361.183 166.918 361.491 166.214C361.799 165.495 362.21 164.901 362.723 164.432C363.236 163.948 363.83 163.589 364.505 163.354C365.18 163.105 365.891 162.98 366.639 162.98C367.387 162.98 368.098 163.105 368.773 163.354C369.448 163.589 370.042 163.948 370.555 164.432C371.068 164.901 371.479 165.495 371.787 166.214C372.095 166.918 372.249 167.747 372.249 168.7L372.249 169.14C372.249 170.137 372.095 171.01 371.787 171.758C371.479 172.506 371.068 173.129 370.555 173.628C370.042 174.112 369.448 174.479 368.773 174.728C368.098 174.963 367.387 175.08 366.639 175.08ZM366.639 173.32C367.079 173.32 367.519 173.247 367.959 173.1C368.399 172.939 368.788 172.697 369.125 172.374C369.462 172.037 369.734 171.604 369.939 171.076C370.159 170.548 370.269 169.903 370.269 169.14L370.269 168.7C370.269 167.996 370.159 167.395 369.939 166.896C369.734 166.397 369.462 165.987 369.125 165.664C368.788 165.341 368.399 165.107 367.959 164.96C367.519 164.813 367.079 164.74 366.639 164.74C366.199 164.74 365.759 164.813 365.319 164.96C364.879 165.107 364.49 165.341 364.153 165.664C363.816 165.987 363.537 166.397 363.317 166.896C363.112 167.395 363.009 167.996 363.009 168.7L363.009 169.14C363.009 169.903 363.112 170.548 363.317 171.076C363.537 171.604 363.816 172.037 364.153 172.374C364.49 172.697 364.879 172.939 365.319 173.1C365.759 173.247 366.199 173.32 366.639 173.32ZM373.456 177.61L373.456 173.144L374.886 173.144C375.047 172.924 375.194 172.587 375.326 172.132C375.458 171.677 375.575 171.142 375.678 170.526C375.78 169.91 375.854 169.243 375.898 168.524C375.956 167.791 375.986 167.043 375.986 166.28L375.986 163.2L384.126 163.2L384.126 173.144L385.776 173.144L385.776 177.61L383.928 177.61L383.928 174.86L375.304 174.86L375.304 177.61L373.456 177.61ZM376.866 173.144L382.19 173.144L382.19 164.916L377.878 164.916L377.878 166.72C377.878 167.336 377.856 167.952 377.812 168.568C377.768 169.169 377.702 169.749 377.614 170.306C377.526 170.849 377.416 171.362 377.284 171.846C377.166 172.33 377.027 172.763 376.866 173.144Z" fill="#FFFFFF" fill-opacity="1.000000" fill-rule="evenodd"/>
	<path id="мин" d="M158.56 116.66L158.56 99.7L161.568 99.7L167.616 110.26L173.664 99.7L176.48 99.7L176.48 116.66L173.664 116.66L173.664 104.34L168.64 112.98L166.4 112.98L161.376 104.34L161.376 116.66L158.56 116.66ZM181.591 116.66L181.591 99.7L184.407 99.7L184.407 112.5L193.175 99.7L195.991 99.7L195.991 116.66L193.175 116.66L193.175 103.86L184.407 116.66L181.591 116.66ZM201.122 116.66L201.122 99.7L203.939 99.7L203.939 106.772L212.706 106.772L212.706 99.7L215.522 99.7L215.522 116.66L212.706 116.66L212.706 109.268L203.939 109.268L203.939 116.66L201.122 116.66Z" fill="#FFFFFF" fill-opacity="1.000000" fill-rule="evenodd"/>
	<path id="3" d="M15.9703 321.6C15.9703 314.4 20.7703 307.2 30.3703 307.2C39.9703 307.2 44.7703 314.4 44.7703 321.6C44.7703 321.6 44.7703 350.4 44.7703 350.4C44.7703 386.88 56.7703 400.8 75.9703 400.8C95.1703 400.8 107.17 386.88 107.17 350.4L107.17 268.8C107.17 233.28 95.1703 219.36 75.9703 219.36C54.3703 219.36 36.6103 237.6 36.6103 237.6L30.3703 230.4L122.05 127.68L20.7703 127.68L20.7703 96L138.37 96L138.37 124.8L51.9703 219.36C51.9703 219.36 62.0503 211.2 78.3703 211.2C114.37 211.2 138.37 235.2 138.37 292.8L138.37 326.4C138.37 384 114.37 408 75.9703 408C39.9703 408 15.9703 384 15.9703 326.4C15.9703 326.4 15.9703 321.6 15.9703 321.6Z" fill="#FFFFFF" fill-opacity="1.000000" fill-rule="evenodd"/>
	<path id="3" d="M15.3063 321.6C15.3063 317.76 16.5863 314.4 19.1463 311.52C21.7063 308.64 25.2262 307.2 29.7063 307.2C34.1863 307.2 37.7062 308.64 40.2663 311.52C42.8263 314.4 44.1063 317.76 44.1063 321.6L44.1063 350.4C44.1063 384 54.5062 400.8 75.3063 400.8C96.1063 400.8 106.506 384 106.506 350.4L106.506 268.8C106.506 235.84 96.1063 219.36 75.3063 219.36C68.9062 219.36 62.3463 220.96 55.6263 224.16C49.2263 227.04 44.4263 230.08 41.2263 233.28L35.9463 237.6L29.7063 230.4L121.386 127.68L20.1063 127.68L20.1063 96L137.706 96L137.706 124.8L51.3063 219.36C58.0263 213.92 66.8262 211.2 77.7063 211.2C117.706 211.2 137.706 238.4 137.706 292.8L137.706 326.4C137.706 380.8 116.906 408 75.3063 408C35.3062 408 15.3063 380.8 15.3063 326.4L15.3063 321.6Z" fill="#000000" fill-opacity="0.050000" fill-rule="evenodd"/>
</svg>
